<?xml version="1.0" encoding="UTF-8" standalone="no"?>
<svg
   xmlns:dc="http://purl.org/dc/elements/1.1/"
   xmlns:cc="http://creativecommons.org/ns#"
   xmlns:rdf="http://www.w3.org/1999/02/22-rdf-syntax-ns#"
   xmlns:svg="http://www.w3.org/2000/svg"
   xmlns="http://www.w3.org/2000/svg"
   xmlns:sodipodi="http://sodipodi.sourceforge.net/DTD/sodipodi-0.dtd"
   xmlns:inkscape="http://www.inkscape.org/namespaces/inkscape"
   sodipodi:docname="rack.svg"
   inkscape:version="1.0 (4035a4fb49, 2020-05-01)"
   inkscape:export-ydpi="96"
   inkscape:export-xdpi="96"
   inkscape:export-filename="/home/roger/Workspace/Tarbora/Resources/textures/rack.png"
   id="svg8"
   version="1.1"
   viewBox="0 0 210 297"
   height="297mm"
   width="210mm">
  <defs
     id="defs2">
    <rect
       x="288.30651"
       y="339.86385"
       width="373.10421"
       height="363.39167"
       id="rect3388" />
  </defs>
  <sodipodi:namedview
     inkscape:window-maximized="1"
     inkscape:window-y="25"
     inkscape:window-x="1920"
     inkscape:window-height="1055"
     inkscape:window-width="1920"
     inkscape:snap-page="true"
     inkscape:snap-nodes="true"
     inkscape:snap-intersection-paths="true"
     inkscape:object-paths="true"
     inkscape:object-nodes="false"
     inkscape:snap-smooth-nodes="true"
     inkscape:snap-global="true"
     showgrid="false"
     inkscape:document-rotation="0"
     inkscape:current-layer="layer1"
     inkscape:document-units="mm"
     inkscape:cy="438.30692"
     inkscape:cx="991.56366"
     inkscape:zoom="0.49497475"
     inkscape:pageshadow="2"
     inkscape:pageopacity="0.0"
     borderopacity="1.0"
     bordercolor="#666666"
     pagecolor="#ffffff"
     id="base"
     inkscape:snap-bbox="true" />
  <metadata
     id="metadata5">
    <rdf:RDF>
      <cc:Work
         rdf:about="">
        <dc:format>image/svg+xml</dc:format>
        <dc:type
           rdf:resource="http://purl.org/dc/dcmitype/StillImage" />
        <dc:title />
      </cc:Work>
    </rdf:RDF>
  </metadata>
  <g
     id="layer1"
     inkscape:groupmode="layer"
     inkscape:label="Capa 1">
    <g
       transform="translate(0.19571289,-63.705162)"
       id="g1546">
      <g
         id="g1524"
         transform="rotate(90,186.97888,192.71674)">
        <g
           transform="translate(63.48917,0.32130754)"
           id="g1583">
          <g
             id="g1476"
             transform="translate(9.1666672e-7,-6.5850744)">
            <rect
               style="fill:#725742;fill-opacity:1;fill-rule:evenodd;stroke:none;stroke-width:0.161725;stroke-opacity:0"
               id="rect1470"
               width="6.5850854"
               height="198.4279"
               x="198.36026"
               y="-199.22194"
               transform="matrix(0.00145738,0.99999894,-0.99999999,1.486935e-4,0,0)" />
            <path
               sodipodi:nodetypes="cccccccccccccccccccccccccccccccccccccc"
               id="path1472"
               d="m 199.02409,200.41339 -0.11599,0.64536 0.0244,0.33063 0.0163,0.16146 0.10832,0.0952 -0.10566,0.32865 -0.88445,0.24607 0.71783,0.21952 -0.006,0.53803 -12.74814,-0.016 -18.50297,0.204 -15.64088,-0.15441 -19.98741,0.0944 -15.60564,-0.37635 -12.16413,0.40709 -18.57552,-0.0469 -15.075012,0.052 -27.015333,-0.0694 -19.930544,0.2293 -18.1464833,-0.33577 -3.0873326,0.0796 0.5317657,-0.84311 0.2028805,-0.40172 -0.4271741,-0.13943 -0.1280238,-0.31087 -0.1848939,-0.15 0.079717,-0.84029 11.5115075,0.11374 25.962519,-0.1269 18.023823,0.1987 18.994638,-0.39694 18.124857,0.42003 21.205879,-0.42123 17.3297,0.26292 21.59601,-0.22333 19.27713,0.25164 15.60032,-0.23413 z"
               style="fill:#81624c;fill-opacity:1;stroke:none;stroke-width:0.229839px;stroke-linecap:butt;stroke-linejoin:miter;stroke-opacity:1" />
            <path
               id="path1474"
               d="m 83.71962,201.37208 -3.79646,-0.48164 -2.85303,0.27392 1.32209,0.60637 2.90947,0.0348 z"
               style="fill:#725742;fill-opacity:1;stroke:none;stroke-width:0.291287px;stroke-linecap:butt;stroke-linejoin:miter;stroke-opacity:1" />
          </g>
          <rect
             transform="rotate(-90,186.97888,192.71674)"
             style="fill:#725742;fill-opacity:1;fill-rule:evenodd;stroke:none;stroke-width:0.0193012;stroke-opacity:0"
             id="rect1494"
             width="6.614583"
             height="6.614583"
             x="181.33571"
             y="0.21599233"
             inkscape:export-xdpi="96"
             inkscape:export-ydpi="96" />
          <path
             transform="rotate(-90,186.97888,192.71674)"
             id="path1496"
             style="fill:#81624c;fill-opacity:1;fill-rule:evenodd;stroke:none;stroke-width:0.0125533;stroke-opacity:0"
             d="m 182.73304,1.8419217 0.68837,-0.4337701 0.38031,0.5910301 0.14017,-0.5702101 0.59226,0.0237 0.91956,0.0851 0.79507,0.2477301 0.41758,1.4571699 0.10046,1.21834 -0.21298,0.62099 -0.58385,0.38409 -0.18453,-0.72306 -0.0978,0.81187 -1.77373,0.0634 -1.01814,-0.27575 -0.47591,-0.99502 0.0715,-0.70239 0.62212,-0.15609 -0.58832,-0.17591 0.0977,-0.9598799 z"
             sodipodi:nodetypes="ccccccccccccccccccccc"
             inkscape:export-xdpi="96"
             inkscape:export-ydpi="96" />
          <g
             transform="translate(9.1666672e-7,-13.199684)"
             id="g1504">
            <rect
               transform="matrix(0.00145738,0.99999894,-0.99999999,1.486935e-4,0,0)"
               y="-199.22194"
               x="198.36026"
               height="198.4279"
               width="6.5850854"
               id="rect1498"
               style="fill:#725742;fill-opacity:1;fill-rule:evenodd;stroke:none;stroke-width:0.161725;stroke-opacity:0" />
            <path
               style="fill:#81624c;fill-opacity:1;stroke:none;stroke-width:0.229839px;stroke-linecap:butt;stroke-linejoin:miter;stroke-opacity:1"
               d="m 199.02409,200.41339 -0.11599,0.64536 0.0244,0.33063 0.0163,0.16146 0.10832,0.0952 -0.10566,0.32865 -0.88445,0.24607 0.71783,0.21952 -0.006,0.53803 -12.74814,-0.016 -18.50297,0.204 -15.64088,-0.15441 -19.98741,0.0944 -15.60564,-0.37635 -12.16413,0.40709 -18.57552,-0.0469 -15.075012,0.052 -27.015333,-0.0694 -19.930544,0.2293 -18.1464833,-0.33577 -3.0873326,0.0796 0.5317657,-0.84311 0.2028805,-0.40172 -0.4271741,-0.13943 -0.1280238,-0.31087 -0.1848939,-0.15 0.079717,-0.84029 11.5115075,0.11374 25.962519,-0.1269 18.023823,0.1987 18.994638,-0.39694 18.124857,0.42003 21.205879,-0.42123 17.3297,0.26292 21.59601,-0.22333 19.27713,0.25164 15.60032,-0.23413 z"
               id="path1500"
               sodipodi:nodetypes="cccccccccccccccccccccccccccccccccccccc" />
            <path
               style="fill:#725742;fill-opacity:1;stroke:none;stroke-width:0.291287px;stroke-linecap:butt;stroke-linejoin:miter;stroke-opacity:1"
               d="m 83.71962,201.37208 -3.79646,-0.48164 -2.85303,0.27392 1.32209,0.60637 2.90947,0.0348 z"
               id="path1502" />
          </g>
          <rect
             transform="rotate(-90,186.97888,192.71674)"
             inkscape:export-ydpi="96"
             inkscape:export-xdpi="96"
             y="0.21599233"
             x="187.9503"
             height="6.614583"
             width="6.614583"
             id="rect1506"
             style="fill:#725742;fill-opacity:1;fill-rule:evenodd;stroke:none;stroke-width:0.0193012;stroke-opacity:0" />
          <path
             transform="rotate(-90,186.97888,192.71674)"
             inkscape:export-ydpi="96"
             inkscape:export-xdpi="96"
             sodipodi:nodetypes="ccccccccccccccccccccc"
             d="m 189.34763,1.8419217 0.68837,-0.4337701 0.38031,0.5910301 0.14017,-0.5702101 0.59226,0.0237 0.91956,0.0851 0.79507,0.2477301 0.41758,1.4571699 0.10046,1.21834 -0.21298,0.62099 -0.58385,0.38409 -0.18453,-0.72306 -0.0978,0.81187 -1.77373,0.0634 -1.01814,-0.27575 -0.47591,-0.99502 0.0715,-0.70239 0.62212,-0.15609 -0.58832,-0.17591 0.0977,-0.9598799 z"
             style="fill:#81624c;fill-opacity:1;fill-rule:evenodd;stroke:none;stroke-width:0.0125533;stroke-opacity:0"
             id="path1508" />
          <g
             id="g1516"
             transform="translate(9.1666672e-7,-19.784766)">
            <rect
               style="fill:#725742;fill-opacity:1;fill-rule:evenodd;stroke:none;stroke-width:0.161725;stroke-opacity:0"
               id="rect1510"
               width="6.5850854"
               height="198.4279"
               x="198.36026"
               y="-199.22194"
               transform="matrix(0.00145738,0.99999894,-0.99999999,1.486935e-4,0,0)" />
            <path
               sodipodi:nodetypes="cccccccccccccccccccccccccccccccccccccc"
               id="path1512"
               d="m 199.02409,200.41339 -0.11599,0.64536 0.0244,0.33063 0.0163,0.16146 0.10832,0.0952 -0.10566,0.32865 -0.88445,0.24607 0.71783,0.21952 -0.006,0.53803 -12.74814,-0.016 -18.50297,0.204 -15.64088,-0.15441 -19.98741,0.0944 -15.60564,-0.37635 -12.16413,0.40709 -18.57552,-0.0469 -15.075012,0.052 -27.015333,-0.0694 -19.930544,0.2293 -18.1464833,-0.33577 -3.0873326,0.0796 0.5317657,-0.84311 0.2028805,-0.40172 -0.4271741,-0.13943 -0.1280238,-0.31087 -0.1848939,-0.15 0.079717,-0.84029 11.5115075,0.11374 25.962519,-0.1269 18.023823,0.1987 18.994638,-0.39694 18.124857,0.42003 21.205879,-0.42123 17.3297,0.26292 21.59601,-0.22333 19.27713,0.25164 15.60032,-0.23413 z"
               style="fill:#81624c;fill-opacity:1;stroke:none;stroke-width:0.229839px;stroke-linecap:butt;stroke-linejoin:miter;stroke-opacity:1" />
            <path
               id="path1514"
               d="m 83.71962,201.37208 -3.79646,-0.48164 -2.85303,0.27392 1.32209,0.60637 2.90947,0.0348 z"
               style="fill:#725742;fill-opacity:1;stroke:none;stroke-width:0.291287px;stroke-linecap:butt;stroke-linejoin:miter;stroke-opacity:1" />
          </g>
          <rect
             transform="matrix(0.00145738,0.99999894,-0.99999999,1.486935e-4,0,0)"
             y="-199.22194"
             x="198.36026"
             height="198.4279"
             width="6.5850854"
             id="rect1518"
             style="fill:#725742;fill-opacity:1;fill-rule:evenodd;stroke:none;stroke-width:0.161725;stroke-opacity:0" />
          <path
             style="fill:#81624c;fill-opacity:1;stroke:none;stroke-width:0.229839px;stroke-linecap:butt;stroke-linejoin:miter;stroke-opacity:1"
             d="m 199.02409,200.41339 -0.11599,0.64536 0.0244,0.33063 0.0163,0.16146 0.10832,0.0952 -0.10566,0.32865 -0.88445,0.24607 0.71783,0.21952 -0.006,0.53803 -12.74814,-0.016 -18.50297,0.204 -15.64088,-0.15441 -19.98741,0.0944 -15.60564,-0.37635 -12.16413,0.40709 -18.57552,-0.0469 -15.075012,0.052 -27.015333,-0.0694 -19.930544,0.2293 -18.1464833,-0.33577 -3.0873326,0.0796 0.5317657,-0.84311 0.2028805,-0.40172 -0.4271741,-0.13943 -0.1280238,-0.31087 -0.1848939,-0.15 0.079717,-0.84029 11.5115075,0.11374 25.962519,-0.1269 18.023823,0.1987 18.994638,-0.39694 18.124857,0.42003 21.205879,-0.42123 17.3297,0.26292 21.59601,-0.22333 19.27713,0.25164 15.60032,-0.23413 z"
             id="path1520"
             sodipodi:nodetypes="cccccccccccccccccccccccccccccccccccccc" />
          <path
             style="fill:#725742;fill-opacity:1;stroke:none;stroke-width:0.291287px;stroke-linecap:butt;stroke-linejoin:miter;stroke-opacity:1"
             d="m 83.71962,201.37208 -3.79646,-0.48164 -2.85303,0.27392 1.32209,0.60637 2.90947,0.0348 z"
             id="path1522" />
        </g>
      </g>
    </g>
    <rect
       y="-634.8634"
       x="338.91156"
       height="217.68549"
       width="278.00513"
       id="rect1223"
       style="fill:#008080;fill-opacity:1;fill-rule:evenodd;stroke:none;stroke-width:0.381067;stroke-opacity:0" />
    <path
       d="m -643.92386,-350.14659 2.15956,32.04509 -5.13662,39.38778 -0.33592,24.59952 2.07068,72.13668 -0.24339,41.16131 10.05779,23.30865 c 0,0 -7.84293,17.21991 -7.84293,18.61799 0,1.398085 -5.75419,33.240815 -5.75419,36.745044 0,3.504227 3.70779,35.165295 3.70779,35.165295 l -1.70016,48.343301 4.93459,61.436561 -0.83818,21.386289 19.79877,-1.28003 14.89369,-0.43253 1.84071,-14.808394 -1.82626,-27.961084 c 0,0 -6.52415,-79.495067 -6.52415,-81.019343 0,-1.524276 5.58366,-73.371232 5.58366,-73.371232 l -5.20126,-55.074677 1.8092,-49.74683 1.27796,-68.49918 -0.46509,-50.98706 -1.55133,-28.90625 -2.19985,0.51831 -3.64474,11.39931 -0.36639,-10.78849 -12.33104,-3.31401 z m 20.82562,191.86737 5.52781,9.57926 1.84435,6.36601 -3.2639,6.32003 -2.29235,7.37785 -5.69992,-7.72718 -2.35902,-6.23321 2.6484,-10.75542 z"
       style="fill:#d7bd93;fill-opacity:0.114989;stroke:none;stroke-width:0.264583px;stroke-linecap:butt;stroke-linejoin:miter;stroke-opacity:1"
       id="path1025"
       inkscape:export-xdpi="96"
       inkscape:export-ydpi="96" />
    <path
       inkscape:export-ydpi="96"
       inkscape:export-xdpi="96"
       id="path1029"
       style="fill:#b9b9a6;fill-opacity:0.302742;stroke:none;stroke-width:0.264583px;stroke-linecap:butt;stroke-linejoin:miter;stroke-opacity:1"
       d="m -618.37598,121.95638 -18.11983,0.5643 -2.64273,-0.0119 -0.44389,11.33264 1.89031,29.31914 -0.67746,26.66762 13.10978,0.87024 14.36709,-2.29134 c 0,0 3.01209,-0.0108 6.01358,0.0946 l -4.72996,-22.15007 3.03652,-40.99284 0.2222,-1.78904 z" />
    <rect
       inkscape:export-ydpi="96"
       inkscape:export-xdpi="96"
       y="5.9570311e-07"
       x="26.458368"
       height="26.458334"
       width="26.458334"
       id="rect932"
       style="fill:#68513c;fill-opacity:1;fill-rule:evenodd;stroke:none;stroke-width:0.0772049;stroke-opacity:0" />
    <path
       inkscape:export-ydpi="96"
       inkscape:export-xdpi="96"
       sodipodi:nodetypes="ccccccccccccccccccccc"
       d="m 29.50434,3.04597 4.43666,0.17742 1.80037,2.798 0.66355,-2.69947 2.80383,0.11212 6.80497,-0.44242 3.608,0.45293 -0.31884,8.46343 0.47554,5.76774 -0.0879,5.13185 -3.08402,0.0287 -1.47389,-3.8254 -0.46321,3.84343 -4.67016,0.0435 -10.49485,0.51457 -0.30507,-6.27416 0.33848,-3.3252 2.94513,-0.73894 -2.78515,-0.83278 0.46256,-4.54415 z"
       style="fill:#7b5d48;fill-opacity:1;fill-rule:evenodd;stroke:none;stroke-width:0.0594286;stroke-opacity:0"
       id="rect934" />
    <rect
       inkscape:export-ydpi="96"
       inkscape:export-xdpi="96"
       style="fill:#767676;fill-opacity:1;fill-rule:evenodd;stroke:none;stroke-width:0.0772049;stroke-opacity:0"
       id="rect937"
       width="26.458334"
       height="26.458334"
       x="52.91671"
       y="5.9570311e-07" />
    <rect
       y="26.458344"
       x="26.458368"
       height="146.84375"
       width="26.458334"
       id="rect1041"
       style="fill:#694e3c;fill-opacity:1;fill-rule:evenodd;stroke-width:0.121989;stroke-opacity:0"
       inkscape:export-xdpi="96"
       inkscape:export-ydpi="96" />
    <path
       d="m 34.94608,29.10963 -5.96431,0.74385 0.45134,3.79266 -0.91074,4.48681 1.11788,9.57992 -1.60367,13.68373 0.66927,5.40182 -0.39664,11.78659 -0.32172,7.02768 c 0,0 1.96581,8.09063 1.896,8.26591 -0.0698,0.17529 -1.75058,3.23306 -1.78593,3.37026 -0.0354,0.13721 0.65123,12.0836 0.65123,12.0836 l -0.73683,7.85997 0.46529,10.99347 -0.49796,6.86058 0.72356,9.7206 -0.255,4.10903 2.31766,-0.49865 3.99175,0.93391 0.55853,-4.4707 -0.74735,-11.70384 2.07689,11.34518 -0.40499,4.92995 6.49851,-0.4202 4.73008,-0.13732 0.40184,-2.40356 0.0165,2.4834 2.48201,0.82985 0.53474,-3.68605 -0.38284,-6.50342 0.49783,-8.97744 -1.02765,-15.56824 1.05445,-8.11977 -0.44792,-3.76497 0.77442,-11.34356 -1.45956,-6.84586 0.89652,-11.34391 c 0,0 -0.76472,-11.65474 -0.76472,-11.79701 0,-0.14228 0.89228,-11.75171 0.89228,-11.75171 l -0.24925,-8.23983 -0.044,-12.02948 -3.20502,-0.57074 -2.67903,0.63088 -0.96434,3.01612 -0.0969,-2.85446 -3.26258,-0.87689 -3.26273,-0.0167 -0.40703,5.36439 -0.6217,4.32759 -1.03298,-4.28471 0.47978,-5.41538 z m 7.77896,50.77664 1.46258,2.53451 0.48797,1.68438 -0.86356,1.6722 -0.60653,1.95196 -1.5081,-2.04443 -0.62416,-1.64915 0.70073,-2.84577 z"
       style="fill:#7b5d48;fill-opacity:1;stroke:none;stroke-width:0.0644477px;stroke-linecap:butt;stroke-linejoin:miter;stroke-opacity:1"
       id="path1047"
       inkscape:export-xdpi="96"
       inkscape:export-ydpi="96" />
    <path
       inkscape:export-xdpi="96"
       inkscape:export-ydpi="96"
       id="path1057"
       style="fill:#d7bd93;fill-opacity:0.114989;stroke:none;stroke-width:0.0700042px;stroke-linecap:butt;stroke-linejoin:miter;stroke-opacity:1"
       d="m 37.21488,29.12138 0.57139,8.47859 -1.35907,10.42136 -0.0889,6.50862 0.54787,19.08616 -0.0644,10.8906 2.66112,6.16708 c 0,0 -2.07511,4.5561 -2.07511,4.92601 0,0.36991 -1.52246,8.79496 -1.52246,9.72212 0,0.92716 0.98102,9.30416 0.98102,9.30416 l -0.44984,12.79083 1.30561,16.25509 -0.22177,5.65845 5.23843,-0.33867 3.94062,-0.11444 0.48702,-3.91806 -0.4832,-7.39803 c 0,0 -1.72618,-21.03307 -1.72618,-21.43637 0,-0.4033 1.47735,-19.41281 1.47735,-19.41281 l -1.37617,-14.57184 0.47868,-13.16218 0.33813,-18.12374 -0.12305,-13.49033 -0.41046,-7.64811 -0.58204,0.13714 -0.96434,3.01606 -0.0969,-2.85445 -3.26259,-0.87683 z m 5.51012,50.76491 1.46256,2.53451 0.48799,1.68434 -0.86358,1.67217 -0.60651,1.95206 -1.50811,-2.04448 -0.62416,-1.64921 0.70073,-2.8457 z" />
    <rect
       style="fill:#68513c;fill-opacity:1;fill-rule:evenodd;stroke-width:0.121989;stroke-opacity:0"
       id="rect1059"
       width="26.458334"
       height="146.84375"
       x="26.458368"
       y="26.458344"
       inkscape:export-xdpi="96"
       inkscape:export-ydpi="96" />
    <path
       id="path1065"
       style="fill:#7b5d48;fill-opacity:1;stroke:none;stroke-width:0.0657421px;stroke-linecap:butt;stroke-linejoin:miter;stroke-opacity:1"
       d="m 34.94608,29.10963 -5.96431,0.77403 0.45134,3.94651 -0.91074,4.66884 1.11788,9.96856 -1.60367,14.23884 0.66927,5.62097 -0.39664,12.26475 -0.32172,7.31278 c 0,0 1.96581,8.41885 1.896,8.60124 -0.0698,0.1824 -1.75058,3.36422 -1.78593,3.50699 -0.0354,0.14277 0.65123,12.5738 0.65123,12.5738 l -0.73683,8.17883 0.46529,11.43946 -0.49796,7.1389 0.72356,10.11495 -0.255,4.27571 2.31766,-0.51887 3.99175,0.97179 0.55853,-4.65206 -0.74735,-12.17865 2.07689,11.80544 -0.40499,5.12994 6.49851,-0.43724 4.73008,-0.1429 0.40184,-2.50106 0.0165,2.58415 2.48201,0.86351 0.53474,-3.83558 -0.38284,-6.76726 0.49783,-9.34163 -1.02765,-16.19981 1.05445,-8.44918 -0.44792,-3.9177 0.77442,-11.80375 -1.45956,-7.12358 0.89652,-11.80411 c 0,0 -0.76472,-12.12755 -0.76472,-12.2756 0,-0.14804 0.89228,-12.22845 0.89228,-12.22845 l -0.24925,-8.5741 -0.044,-12.51749 -3.20502,-0.59389 -2.67903,0.65647 -0.96434,3.13847 -0.0969,-2.97025 -3.26258,-0.91247 -3.26273,-0.0174 -0.40703,5.58202 -0.6217,4.50315 -1.03298,-4.45853 0.47978,-5.63508 z m 7.77896,52.83655 1.46258,2.63733 0.48797,1.7527 -0.86356,1.74005 -0.60653,2.03114 -1.5081,-2.12736 -0.62416,-1.71606 0.70073,-2.96121 z"
       inkscape:export-xdpi="96"
       inkscape:export-ydpi="96" />
    <path
       d="m 37.21488,29.12185 0.57139,8.82256 -1.35907,10.84412 -0.0889,6.77267 0.54787,19.86045 -0.0644,11.33241 2.66112,6.41726 c 0,0 -2.07511,4.74094 -2.07511,5.12585 0,0.38492 -1.52246,9.15176 -1.52246,10.11654 0,0.96477 0.98102,9.6816 0.98102,9.6816 l -0.44984,13.30973 1.30561,16.91452 -0.22177,5.88801 5.23843,-0.35241 3.94062,-0.11909 0.48702,-4.077 -0.4832,-7.69816 c 0,0 -1.72618,-21.88634 -1.72618,-22.306 0,-0.41965 1.47735,-20.20034 1.47735,-20.20034 l -1.37617,-15.16299 0.47868,-13.69615 0.33813,-18.85898 -0.12305,-14.03761 -0.41046,-7.95838 -0.58204,0.1427 -0.96434,3.13843 -0.0969,-2.97026 -3.26259,-0.9124 z m 5.51012,52.82434 1.46256,2.63734 0.48799,1.75267 -0.86358,1.74001 -0.60651,2.03125 -1.50811,-2.12743 -0.62416,-1.71611 0.70073,-2.96115 z"
       style="fill:#d7bd93;fill-opacity:0.0724942;stroke:none;stroke-width:0.07141px;stroke-linecap:butt;stroke-linejoin:miter;stroke-opacity:1"
       id="path1075"
       inkscape:export-xdpi="96"
       inkscape:export-ydpi="96" />
    <rect
       inkscape:export-ydpi="96"
       inkscape:export-xdpi="96"
       style="fill:#694e3c;fill-opacity:1;fill-rule:evenodd;stroke-width:0.121989;stroke-opacity:0"
       id="rect1077"
       width="26.458334"
       height="146.84375"
       x="52.91671"
       y="26.458344" />
    <path
       inkscape:export-ydpi="96"
       inkscape:export-xdpi="96"
       id="path1083"
       style="fill:#7b5d48;fill-opacity:1;stroke:none;stroke-width:0.0644477px;stroke-linecap:butt;stroke-linejoin:miter;stroke-opacity:1"
       d="m 61.40442,29.10963 -5.96432,0.74385 0.45134,3.79266 -0.91074,4.48681 1.11788,9.57992 -1.60367,13.68373 0.66928,5.40182 -0.39665,11.78659 -0.32172,7.02768 c 0,0 1.96582,8.09063 1.896,8.26591 -0.0698,0.17529 -1.75057,3.23306 -1.78593,3.37026 -0.0354,0.13721 0.65123,12.0836 0.65123,12.0836 l -0.73682,7.85997 0.46528,10.99347 -0.49796,6.86058 0.72356,9.7206 -0.255,4.10903 2.31767,-0.49865 3.99175,0.93391 0.55853,-4.4707 -0.74735,-11.70384 2.07688,11.34518 -0.40498,4.92995 6.49851,-0.4202 4.73008,-0.13732 0.40184,-2.40356 0.0165,2.4834 2.48201,0.82985 0.53474,-3.68605 -0.38283,-6.50342 0.49782,-8.97744 -1.02764,-15.56824 1.05444,-8.11977 -0.44792,-3.76497 0.77442,-11.34356 -1.45956,-6.84586 0.89652,-11.34391 c 0,0 -0.76472,-11.65474 -0.76472,-11.79701 0,-0.14228 0.89229,-11.75171 0.89229,-11.75171 l -0.24926,-8.23983 -0.044,-12.02948 -3.20502,-0.57074 -2.67904,0.63088 -0.96434,3.01612 -0.0969,-2.85446 -3.26258,-0.87689 -3.26272,-0.0167 -0.40704,5.36439 -0.6217,4.32759 -1.03297,-4.28471 0.47977,-5.41538 z m 7.77896,50.77664 1.46257,2.53451 0.48798,1.68438 -0.86357,1.6722 -0.60652,1.95196 -1.5081,-2.04443 -0.62416,-1.64915 0.70072,-2.84577 z" />
    <path
       d="m 63.67322,29.12138 0.57138,8.47859 -1.35907,10.42136 -0.0889,6.50862 0.54787,19.08616 -0.0644,10.8906 2.66112,6.16708 c 0,0 -2.07511,4.5561 -2.07511,4.92601 0,0.36991 -1.52246,8.79496 -1.52246,9.72212 0,0.92716 0.98102,9.30416 0.98102,9.30416 l -0.44983,12.79083 1.30561,16.25509 -0.22177,5.65845 5.23842,-0.33867 3.94062,-0.11444 0.48703,-3.91806 -0.4832,-7.39803 c 0,0 -1.72618,-21.03307 -1.72618,-21.43637 0,-0.4033 1.47734,-19.41281 1.47734,-19.41281 L 71.51654,82.14023 71.99522,68.97805 72.33335,50.85431 72.2103,37.36398 l -0.41046,-7.64811 -0.58204,0.13714 -0.96434,3.01606 -0.0969,-2.85445 -3.26259,-0.87683 z m 5.51011,50.76491 1.46256,2.53451 0.48799,1.68434 -0.86357,1.67217 -0.60652,1.95206 -1.5081,-2.04448 -0.62416,-1.64921 0.70072,-2.8457 z"
       style="fill:#d7bd93;fill-opacity:0.114989;stroke:none;stroke-width:0.0700042px;stroke-linecap:butt;stroke-linejoin:miter;stroke-opacity:1"
       id="path1093"
       inkscape:export-ydpi="96"
       inkscape:export-xdpi="96" />
    <rect
       inkscape:export-ydpi="96"
       inkscape:export-xdpi="96"
       y="26.458344"
       x="52.91671"
       height="146.84375"
       width="26.458334"
       id="rect1095"
       style="fill:#68513c;fill-opacity:1;fill-rule:evenodd;stroke-width:0.121989;stroke-opacity:0" />
    <path
       inkscape:export-ydpi="96"
       inkscape:export-xdpi="96"
       d="m 61.40442,29.10963 -5.96432,0.77403 0.45134,3.94651 -0.91074,4.66884 1.11788,9.96856 -1.60367,14.23884 0.66928,5.62097 -0.39665,12.26475 -0.32172,7.31278 c 0,0 1.96582,8.41885 1.896,8.60124 -0.0698,0.1824 -1.75057,3.36422 -1.78593,3.50699 -0.0354,0.14277 0.65123,12.5738 0.65123,12.5738 l -0.73682,8.17883 0.46528,11.43946 -0.49796,7.1389 0.72356,10.11495 -0.255,4.27571 2.31767,-0.51887 3.99175,0.97179 0.55853,-4.65206 -0.74735,-12.17865 2.07688,11.80544 -0.40498,5.12994 6.49851,-0.43724 4.73008,-0.1429 0.40184,-2.50106 0.0165,2.58415 2.48201,0.86351 0.53474,-3.83558 -0.38283,-6.76726 0.49782,-9.34163 -1.02764,-16.19981 1.05444,-8.44918 -0.44792,-3.9177 0.77442,-11.80375 -1.45956,-7.12358 0.89652,-11.80411 c 0,0 -0.76472,-12.12755 -0.76472,-12.2756 0,-0.14804 0.89229,-12.22845 0.89229,-12.22845 l -0.24926,-8.5741 -0.044,-12.51749 -3.20502,-0.59389 -2.67904,0.65647 -0.96434,3.13847 -0.0969,-2.97025 -3.26258,-0.91247 -3.26272,-0.0174 -0.40704,5.58202 -0.6217,4.50315 -1.03297,-4.45853 0.47977,-5.63508 z m 7.77896,52.83655 1.46257,2.63733 0.48798,1.7527 -0.86357,1.74005 -0.60652,2.03114 -1.5081,-2.12736 -0.62416,-1.71606 0.70072,-2.96121 z"
       style="fill:#7b5d48;fill-opacity:1;stroke:none;stroke-width:0.0657421px;stroke-linecap:butt;stroke-linejoin:miter;stroke-opacity:1"
       id="path1101" />
    <path
       inkscape:export-ydpi="96"
       inkscape:export-xdpi="96"
       id="path1111"
       style="fill:#d7bd93;fill-opacity:0.0724942;stroke:none;stroke-width:0.07141px;stroke-linecap:butt;stroke-linejoin:miter;stroke-opacity:1"
       d="m 63.67322,29.12185 0.57138,8.82256 -1.35907,10.84412 -0.0889,6.77267 0.54787,19.86045 -0.0644,11.33241 2.66112,6.41726 c 0,0 -2.07511,4.74094 -2.07511,5.12585 0,0.38492 -1.52246,9.15176 -1.52246,10.11654 0,0.96477 0.98102,9.6816 0.98102,9.6816 l -0.44983,13.30973 1.30561,16.91452 -0.22177,5.88801 5.23842,-0.35241 3.94062,-0.11909 0.48703,-4.077 -0.4832,-7.69816 c 0,0 -1.72618,-21.88634 -1.72618,-22.306 0,-0.41965 1.47734,-20.20034 1.47734,-20.20034 L 71.51654,84.29158 71.99522,70.59543 72.33335,51.73645 72.2103,37.69884 l -0.41046,-7.95838 -0.58204,0.1427 -0.96434,3.13843 -0.0969,-2.97026 -3.26259,-0.9124 z m 5.51011,52.82434 1.46256,2.63734 0.48799,1.75267 -0.86357,1.74001 -0.60652,2.03125 -1.5081,-2.12743 -0.62416,-1.71611 0.70072,-2.96115 z" />
    <rect
       y="26.458344"
       x="79.375023"
       height="146.84375"
       width="26.458334"
       id="rect1113"
       style="fill:#694e3c;fill-opacity:1;fill-rule:evenodd;stroke-width:0.121989;stroke-opacity:0"
       inkscape:export-xdpi="96"
       inkscape:export-ydpi="96" />
    <path
       d="m 87.86275,29.10963 -5.96431,0.74385 0.45133,3.79266 -0.91074,4.48681 1.11789,9.57992 -1.60368,13.68373 0.66928,5.40182 -0.39665,11.78659 -0.32171,7.02768 c 0,0 1.96581,8.09063 1.89599,8.26591 -0.0698,0.17529 -1.75057,3.23306 -1.78593,3.37026 -0.0353,0.13721 0.65123,12.0836 0.65123,12.0836 l -0.73682,7.85997 0.46528,10.99347 -0.49796,6.86058 0.72356,9.7206 -0.25499,4.10903 2.31766,-0.49865 3.99175,0.93391 0.55853,-4.4707 -0.74735,-11.70384 2.07689,11.34518 -0.40499,4.92995 6.49851,-0.4202 4.73008,-0.13732 0.40184,-2.40356 0.0165,2.4834 2.48201,0.82985 0.53474,-3.68605 -0.38284,-6.50342 0.49782,-8.97744 -1.02764,-15.56824 1.05444,-8.11977 -0.44792,-3.76497 0.77443,-11.34356 -1.45957,-6.84586 0.89652,-11.34391 c 0,0 -0.76471,-11.65474 -0.76471,-11.79701 0,-0.14228 0.89228,-11.75171 0.89228,-11.75171 l -0.24925,-8.23983 -0.044,-12.02948 -3.20502,-0.57074 -2.67903,0.63088 -0.96434,3.01612 -0.0969,-2.85446 -3.26259,-0.87689 -3.26272,-0.0167 -0.40704,5.36439 -0.62169,4.32759 -1.03298,-4.28471 0.47978,-5.41538 z m 7.77896,50.77664 1.46257,2.53451 0.48798,1.68438 -0.86357,1.6722 -0.60652,1.95196 -1.5081,-2.04443 -0.62416,-1.64915 0.70073,-2.84577 z"
       style="fill:#7b5d48;fill-opacity:1;stroke:none;stroke-width:0.0644477px;stroke-linecap:butt;stroke-linejoin:miter;stroke-opacity:1"
       id="path1119"
       inkscape:export-xdpi="96"
       inkscape:export-ydpi="96" />
    <path
       inkscape:export-xdpi="96"
       inkscape:export-ydpi="96"
       id="path1129"
       style="fill:#d7bd93;fill-opacity:0.114989;stroke:none;stroke-width:0.0700042px;stroke-linecap:butt;stroke-linejoin:miter;stroke-opacity:1"
       d="m 90.13155,29.12138 0.57138,8.47859 -1.35906,10.42136 -0.0889,6.50862 0.54787,19.08616 -0.0644,10.8906 2.66113,6.16708 c 0,0 -2.07512,4.5561 -2.07512,4.92601 0,0.36991 -1.52246,8.79496 -1.52246,9.72212 0,0.92716 0.98102,9.30416 0.98102,9.30416 l -0.44983,12.79083 1.30561,16.25509 -0.22177,5.65845 5.23843,-0.33867 3.94062,-0.11444 0.48702,-3.91806 -0.4832,-7.39803 c 0,0 -1.72618,-21.03307 -1.72618,-21.43637 0,-0.4033 1.47734,-19.41281 1.47734,-19.41281 L 97.97489,82.14023 98.45357,68.97805 98.7917,50.85431 98.66864,37.36398 l -0.41045,-7.64811 -0.58205,0.13714 -0.96433,3.01606 -0.097,-2.85445 -3.26258,-0.87683 z m 5.51011,50.76491 1.46257,2.53451 0.48798,1.68434 -0.86357,1.67217 -0.60652,1.95206 -1.5081,-2.04448 -0.62416,-1.64921 0.70072,-2.8457 z" />
    <rect
       style="fill:#68513c;fill-opacity:1;fill-rule:evenodd;stroke-width:0.121989;stroke-opacity:0"
       id="rect1131"
       width="26.458334"
       height="146.84375"
       x="79.375023"
       y="26.458344"
       inkscape:export-xdpi="96"
       inkscape:export-ydpi="96" />
    <path
       d="m 97.321707,29.10985 5.964493,0.773596 -0.45165,3.94653 0.91106,4.668965 -1.11777,9.968383 1.60352,14.238925 -0.66921,5.621361 0.39636,12.264369 0.32195,7.312731 c 0,0 -1.96583,8.419153 -1.89601,8.601544 0.0698,0.182398 1.75057,3.363992 1.78594,3.506756 0.0353,0.14278 -0.65113,12.57391 -0.65113,12.57391 l 0.73691,8.17883 -0.46561,11.43962 0.49816,7.13858 -0.72347,10.11514 0.25477,4.27571 -2.31769,-0.51883 -3.991485,0.97152 -0.558623,-4.65192 0.747242,-12.17858 -2.076876,11.80548 0.405143,5.12992 -6.498828,-0.43718 -4.729946,-0.14315 -0.402042,-2.50114 -0.01654,2.58434 -2.482019,0.86352 -0.534334,-3.83543 0.382924,-6.76755 -0.49816,-9.34154 1.027842,-16.19953 -1.054716,-8.4491 0.448035,-3.91811 -0.774113,-11.80341 1.459344,-7.123596 -0.896588,-11.804446 c 0,0 0.764812,-12.127169 0.764812,-12.27522 0,-0.148039 -0.892453,-12.22871 -0.892453,-12.22871 l 0.249598,-8.574154 0.04393,-12.517583 3.204972,-0.593762 2.678906,0.656291 0.964282,3.138826 0.09715,-2.97036 3.262334,-0.912606 3.262849,-0.01705 0.40721,5.581571 0.621668,4.5036 1.033012,-4.458642 -0.480075,-5.635316 z"
       style="fill:#7b5d48;fill-opacity:1;stroke:none;stroke-width:0.0657421px;stroke-linecap:butt;stroke-linejoin:miter;stroke-opacity:1"
       id="path1137" />
    <path
       d="m 95.305521,29.121737 -0.57154,8.822717 1.35909,10.844299 0.08888,6.772196 -0.54777,19.860802 0.0646,11.332125 -2.661336,6.417696 c 0,0 2.075326,4.740876 2.075326,5.125786 0,0.384919 1.522388,9.151402 1.522388,10.116182 0,0.96477 -0.981336,9.68158 -0.981336,9.68158 l 0.450101,13.30978 -1.305864,16.91473 0.221691,5.88801 -5.238437,-0.35243 -3.940329,-0.11938 -0.487309,-4.07675 0.483174,-7.69824 c 0,0 1.726509,-21.88647 1.726509,-22.30613 0,-0.41965 -1.477428,-20.200318 -1.477428,-20.200318 l 1.376143,-15.162898 -0.478523,-13.69632 -0.338481,-18.858798 0.123507,-14.037384 0.410311,-7.958688 0.581877,0.142626 0.964282,3.138826 0.09715,-2.97036 3.262334,-0.912606 z"
       style="fill:#d7bd93;fill-opacity:0.0724942;stroke:none;stroke-width:0.07141px;stroke-linecap:butt;stroke-linejoin:miter;stroke-opacity:1"
       id="path1147" />
    <path
       d="m 35.71354,151.45834 -9.25521,0.50288 v 21.3408 h 26.45836 v -21.3408 l -6.34729,-0.0153 z"
       style="fill:#857668;fill-opacity:1;fill-rule:evenodd;stroke:none;stroke-width:0.0780262;stroke-opacity:0"
       id="path1043"
       inkscape:export-xdpi="96"
       inkscape:export-ydpi="96" />
    <path
       d="m 30.43258,152.72028 -2.36934,0.66167 -0.31899,0.0859 c 0,0 0.45361,3.28063 0.39897,3.58241 -0.0546,0.30178 -0.43493,3.39972 -0.43493,3.39972 l 0.0518,3.2552 0.2751,3.24279 -0.41661,3.79834 1.91445,0.28946 3.91054,-0.4559 3.52838,0.34661 4.01049,0.26623 3.80129,-0.60624 c 0,0 2.7331,-0.0135 3.11751,0.18624 0.38441,0.19968 2.99365,-0.1085 2.99365,-0.1085 l 0.6206,-4.03989 c 0,0 -0.13701,-4.07398 -0.0848,-4.72189 0.0522,-0.64791 0.072,-3.41526 0.32609,-3.98512 0.25408,-0.56986 -0.24952,-4.62343 -0.24952,-4.62343 l -3.08594,0.46449 -5.61757,-0.75368 -4.79421,0.14928 -3.40122,-0.0154 z"
       style="fill:#a09286;fill-opacity:1;fill-rule:evenodd;stroke:none;stroke-width:0.0755475;stroke-opacity:0"
       id="path1045"
       inkscape:export-xdpi="96"
       inkscape:export-ydpi="96" />
    <path
       id="path1049"
       d="m 46.10749,164.73681 -0.9307,1.49466 0.80174,1.86297 1.55166,0.66234 0.62863,-1.5109 -0.58904,-1.63586 0.0275,-1.10839 z"
       style="fill:#7c7c7c;fill-opacity:1;stroke:none;stroke-width:0.0700042px;stroke-linecap:butt;stroke-linejoin:miter;stroke-opacity:1"
       inkscape:export-xdpi="96"
       inkscape:export-ydpi="96" />
    <path
       id="path1051"
       d="m 32.99277,159.80026 -0.68665,1.10292 -0.004,0.91113 0.70333,0.25969 1.20961,-1.0574 -0.0964,-1.33394 z"
       style="fill:#7c7c7c;fill-opacity:1;stroke:none;stroke-width:0.0700042px;stroke-linecap:butt;stroke-linejoin:miter;stroke-opacity:1"
       inkscape:export-xdpi="96"
       inkscape:export-ydpi="96" />
    <path
       id="path1053"
       d="m 32.83887,158.3166 -0.27751,0.69891 0.42355,0.38911 0.75083,-0.0937 0.12611,-0.82809 -0.43085,-0.26589 z"
       style="fill:#7c7c7c;fill-opacity:1;stroke:none;stroke-width:0.0700042px;stroke-linecap:butt;stroke-linejoin:miter;stroke-opacity:1"
       inkscape:export-xdpi="96"
       inkscape:export-ydpi="96" />
    <path
       inkscape:export-xdpi="96"
       inkscape:export-ydpi="96"
       id="path1055"
       style="fill:#b9b9a6;fill-opacity:0.302742;stroke:none;stroke-width:0.0700042px;stroke-linecap:butt;stroke-linejoin:miter;stroke-opacity:1"
       d="m 42.80375,153.00474 -4.79421,0.1493 -0.69922,-0.003 -0.11745,2.99843 0.50015,7.75736 -0.17925,7.0558 3.46864,0.23025 3.80129,-0.60625 c 0,0 0.79695,-0.003 1.59109,0.025 l -1.25147,-5.86054 0.80341,-10.84602 0.0588,-0.47335 z" />
    <path
       id="path1061"
       style="fill:#989898;fill-opacity:1;fill-rule:evenodd;stroke:none;stroke-width:0.0780262;stroke-opacity:0"
       d="m 35.71354,151.45834 -9.25521,0.50288 v 21.3408 h 26.45836 v -21.3408 l -6.34729,-0.0153 z"
       inkscape:export-xdpi="96"
       inkscape:export-ydpi="96" />
    <path
       id="path1063"
       style="fill:#8a8a8a;fill-opacity:1;fill-rule:evenodd;stroke:none;stroke-width:0.0755475;stroke-opacity:0"
       d="m 30.43258,152.72028 -2.36934,0.66167 -0.31899,0.0859 c 0,0 0.45361,3.28063 0.39897,3.58241 -0.0546,0.30178 -0.43493,3.39972 -0.43493,3.39972 l 0.0518,3.2552 0.2751,3.24279 -0.41661,3.79834 1.91445,0.28946 3.91054,-0.4559 3.52838,0.34661 4.01049,0.26623 3.80129,-0.60624 c 0,0 2.7331,-0.0135 3.11751,0.18624 0.38441,0.19968 2.99365,-0.1085 2.99365,-0.1085 l 0.6206,-4.03989 c 0,0 -0.13701,-4.07398 -0.0848,-4.72189 0.0522,-0.64791 0.072,-3.41526 0.32609,-3.98512 0.25408,-0.56986 -0.24952,-4.62343 -0.24952,-4.62343 l -3.08594,0.46449 -5.61757,-0.75368 -4.79421,0.14928 -3.40122,-0.0154 z"
       inkscape:export-xdpi="96"
       inkscape:export-ydpi="96" />
    <path
       style="fill:#7c7c7c;fill-opacity:1;stroke:none;stroke-width:0.0700042px;stroke-linecap:butt;stroke-linejoin:miter;stroke-opacity:1"
       d="m 46.89526,164.73681 -0.9307,1.49466 0.80174,1.86297 1.55166,0.66234 0.62863,-1.5109 -0.58904,-1.63586 0.0275,-1.10839 z"
       id="path1067"
       inkscape:export-xdpi="96"
       inkscape:export-ydpi="96" />
    <path
       style="fill:#7c7c7c;fill-opacity:1;stroke:none;stroke-width:0.0700042px;stroke-linecap:butt;stroke-linejoin:miter;stroke-opacity:1"
       d="m 32.99277,159.80026 -0.68665,1.10292 -0.004,0.91113 0.70333,0.25969 1.20961,-1.0574 -0.0964,-1.33394 z"
       id="path1069"
       inkscape:export-xdpi="96"
       inkscape:export-ydpi="96" />
    <path
       style="fill:#7c7c7c;fill-opacity:1;stroke:none;stroke-width:0.0700042px;stroke-linecap:butt;stroke-linejoin:miter;stroke-opacity:1"
       d="m 32.83887,158.3166 -0.27751,0.69891 0.42355,0.38911 0.75083,-0.0937 0.12611,-0.82809 -0.43085,-0.26589 z"
       id="path1071"
       inkscape:export-xdpi="96"
       inkscape:export-ydpi="96" />
    <path
       d="m 42.80375,153.00474 -4.79421,0.1493 -0.69922,-0.003 -0.11745,2.99843 0.50015,7.75736 -0.17925,7.0558 3.46864,0.23025 3.80129,-0.60625 c 0,0 0.79695,-0.003 1.59109,0.025 l -1.25147,-5.86054 0.80341,-10.84602 0.0588,-0.47335 z"
       style="fill:#adadad;fill-opacity:0.168483;stroke:none;stroke-width:0.0700042px;stroke-linecap:butt;stroke-linejoin:miter;stroke-opacity:1"
       id="path1073"
       inkscape:export-xdpi="96"
       inkscape:export-ydpi="96" />
    <path
       inkscape:export-ydpi="96"
       inkscape:export-xdpi="96"
       id="path1079"
       style="fill:#857668;fill-opacity:1;fill-rule:evenodd;stroke:none;stroke-width:0.0780262;stroke-opacity:0"
       d="m 62.17187,151.45834 -9.2552,0.50288 v 21.3408 h 26.45835 v -21.3408 l -6.34728,-0.0153 z" />
    <path
       inkscape:export-ydpi="96"
       inkscape:export-xdpi="96"
       id="path1081"
       style="fill:#a09286;fill-opacity:1;fill-rule:evenodd;stroke:none;stroke-width:0.0755475;stroke-opacity:0"
       d="m 56.89092,152.72028 -2.36935,0.66167 -0.31898,0.0859 c 0,0 0.45361,3.28063 0.39896,3.58241 -0.0546,0.30178 -0.43492,3.39972 -0.43492,3.39972 l 0.0518,3.2552 0.27509,3.24279 -0.41661,3.79834 1.91446,0.28946 3.91053,-0.4559 3.52839,0.34661 4.01048,0.26623 3.80129,-0.60624 c 0,0 2.73311,-0.0135 3.11752,0.18624 0.3844,0.19968 2.99364,-0.1085 2.99364,-0.1085 l 0.6206,-4.03989 c 0,0 -0.13701,-4.07398 -0.0848,-4.72189 0.0522,-0.64791 0.072,-3.41526 0.3261,-3.98512 0.25407,-0.56986 -0.24953,-4.62343 -0.24953,-4.62343 l -3.08593,0.46449 -5.61758,-0.75368 -4.7942,0.14928 -3.40123,-0.0154 z" />
    <path
       inkscape:export-ydpi="96"
       inkscape:export-xdpi="96"
       style="fill:#7c7c7c;fill-opacity:1;stroke:none;stroke-width:0.0700042px;stroke-linecap:butt;stroke-linejoin:miter;stroke-opacity:1"
       d="m 72.56582,164.73681 -0.9307,1.49466 0.80175,1.86297 1.55165,0.66234 0.62863,-1.5109 -0.58903,-1.63586 0.0275,-1.10839 z"
       id="path1085" />
    <path
       inkscape:export-ydpi="96"
       inkscape:export-xdpi="96"
       style="fill:#7c7c7c;fill-opacity:1;stroke:none;stroke-width:0.0700042px;stroke-linecap:butt;stroke-linejoin:miter;stroke-opacity:1"
       d="m 59.4511,159.80026 -0.68664,1.10292 -0.004,0.91113 0.70334,0.25969 1.2096,-1.0574 -0.0964,-1.33394 z"
       id="path1087" />
    <path
       inkscape:export-ydpi="96"
       inkscape:export-xdpi="96"
       style="fill:#7c7c7c;fill-opacity:1;stroke:none;stroke-width:0.0700042px;stroke-linecap:butt;stroke-linejoin:miter;stroke-opacity:1"
       d="m 59.29721,158.3166 -0.27752,0.69891 0.42355,0.38911 0.75083,-0.0937 0.12611,-0.82809 -0.43085,-0.26589 z"
       id="path1089" />
    <path
       d="m 69.26208,153.00474 -4.7942,0.1493 -0.69922,-0.003 -0.11745,2.99843 0.50014,7.75736 -0.17924,7.0558 3.46863,0.23025 3.80129,-0.60625 c 0,0 0.79695,-0.003 1.59109,0.025 l -1.25146,-5.86054 0.80341,-10.84602 0.0588,-0.47335 z"
       style="fill:#b9b9a6;fill-opacity:0.302742;stroke:none;stroke-width:0.0700042px;stroke-linecap:butt;stroke-linejoin:miter;stroke-opacity:1"
       id="path1091"
       inkscape:export-ydpi="96"
       inkscape:export-xdpi="96" />
    <path
       inkscape:export-ydpi="96"
       inkscape:export-xdpi="96"
       d="m 62.17187,151.45834 -9.2552,0.50288 v 21.3408 h 26.45835 v -21.3408 l -6.34728,-0.0153 z"
       style="fill:#989898;fill-opacity:1;fill-rule:evenodd;stroke:none;stroke-width:0.0780262;stroke-opacity:0"
       id="path1097" />
    <path
       inkscape:export-ydpi="96"
       inkscape:export-xdpi="96"
       d="m 56.89092,152.72028 -2.36935,0.66167 -0.31898,0.0859 c 0,0 0.45361,3.28063 0.39896,3.58241 -0.0546,0.30178 -0.43492,3.39972 -0.43492,3.39972 l 0.0518,3.2552 0.27509,3.24279 -0.41661,3.79834 1.91446,0.28946 3.91053,-0.4559 3.52839,0.34661 4.01048,0.26623 3.80129,-0.60624 c 0,0 2.73311,-0.0135 3.11752,0.18624 0.3844,0.19968 2.99364,-0.1085 2.99364,-0.1085 l 0.6206,-4.03989 c 0,0 -0.13701,-4.07398 -0.0848,-4.72189 0.0522,-0.64791 0.072,-3.41526 0.3261,-3.98512 0.25407,-0.56986 -0.24953,-4.62343 -0.24953,-4.62343 l -3.08593,0.46449 -5.61758,-0.75368 -4.7942,0.14928 -3.40123,-0.0154 z"
       style="fill:#8a8a8a;fill-opacity:1;fill-rule:evenodd;stroke:none;stroke-width:0.0755475;stroke-opacity:0"
       id="path1099" />
    <path
       inkscape:export-ydpi="96"
       inkscape:export-xdpi="96"
       id="path1103"
       d="m 73.35359,164.73681 -0.9307,1.49466 0.80175,1.86297 1.55165,0.66234 0.62863,-1.5109 -0.58903,-1.63586 0.0275,-1.10839 z"
       style="fill:#7c7c7c;fill-opacity:1;stroke:none;stroke-width:0.0700042px;stroke-linecap:butt;stroke-linejoin:miter;stroke-opacity:1" />
    <path
       inkscape:export-ydpi="96"
       inkscape:export-xdpi="96"
       id="path1105"
       d="m 59.4511,159.80026 -0.68664,1.10292 -0.004,0.91113 0.70334,0.25969 1.2096,-1.0574 -0.0964,-1.33394 z"
       style="fill:#7c7c7c;fill-opacity:1;stroke:none;stroke-width:0.0700042px;stroke-linecap:butt;stroke-linejoin:miter;stroke-opacity:1" />
    <path
       inkscape:export-ydpi="96"
       inkscape:export-xdpi="96"
       id="path1107"
       d="m 59.29721,158.3166 -0.27752,0.69891 0.42355,0.38911 0.75083,-0.0937 0.12611,-0.82809 -0.43085,-0.26589 z"
       style="fill:#7c7c7c;fill-opacity:1;stroke:none;stroke-width:0.0700042px;stroke-linecap:butt;stroke-linejoin:miter;stroke-opacity:1" />
    <path
       inkscape:export-ydpi="96"
       inkscape:export-xdpi="96"
       id="path1109"
       style="fill:#adadad;fill-opacity:0.168483;stroke:none;stroke-width:0.0700042px;stroke-linecap:butt;stroke-linejoin:miter;stroke-opacity:1"
       d="m 69.26208,153.00474 -4.7942,0.1493 -0.69922,-0.003 -0.11745,2.99843 0.50014,7.75736 -0.17924,7.0558 3.46863,0.23025 3.80129,-0.60625 c 0,0 0.79695,-0.003 1.59109,0.025 l -1.25146,-5.86054 0.80341,-10.84602 0.0588,-0.47335 z" />
    <path
       d="m 88.6302,151.45834 -9.2552,0.50288 v 21.3408 h 26.45836 v -21.3408 l -6.34729,-0.0153 z"
       style="fill:#857668;fill-opacity:1;fill-rule:evenodd;stroke:none;stroke-width:0.0780262;stroke-opacity:0"
       id="path1115"
       inkscape:export-xdpi="96"
       inkscape:export-ydpi="96" />
    <path
       d="m 83.34925,152.72028 -2.36935,0.66167 -0.31898,0.0859 c 0,0 0.45361,3.28063 0.39897,3.58241 -0.0546,0.30178 -0.43493,3.39972 -0.43493,3.39972 l 0.0518,3.2552 0.27509,3.24279 -0.4166,3.79834 1.91445,0.28946 3.91054,-0.4559 3.52838,0.34661 4.01048,0.26623 3.80129,-0.60624 c 0,0 2.73311,-0.0135 3.11752,0.18624 0.38441,0.19968 2.99364,-0.1085 2.99364,-0.1085 l 0.62061,-4.03989 c 0,0 -0.13702,-4.07398 -0.0848,-4.72189 0.0522,-0.64791 0.072,-3.41526 0.32609,-3.98512 0.25407,-0.56986 -0.24953,-4.62343 -0.24953,-4.62343 l -3.08593,0.46449 -5.61757,-0.75368 -4.79421,0.14928 -3.40122,-0.0154 z"
       style="fill:#a09286;fill-opacity:1;fill-rule:evenodd;stroke:none;stroke-width:0.0755475;stroke-opacity:0"
       id="path1117"
       inkscape:export-xdpi="96"
       inkscape:export-ydpi="96" />
    <path
       id="path1121"
       d="m 99.02415,164.73681 -0.93069,1.49466 0.80174,1.86297 1.55166,0.66234 0.62863,-1.5109 -0.58904,-1.63586 0.0275,-1.10839 z"
       style="fill:#7c7c7c;fill-opacity:1;stroke:none;stroke-width:0.0700042px;stroke-linecap:butt;stroke-linejoin:miter;stroke-opacity:1"
       inkscape:export-xdpi="96"
       inkscape:export-ydpi="96" />
    <path
       id="path1123"
       d="m 85.90944,159.80026 -0.68665,1.10292 -0.004,0.91113 0.70334,0.25969 1.2096,-1.0574 -0.0964,-1.33394 z"
       style="fill:#7c7c7c;fill-opacity:1;stroke:none;stroke-width:0.0700042px;stroke-linecap:butt;stroke-linejoin:miter;stroke-opacity:1"
       inkscape:export-xdpi="96"
       inkscape:export-ydpi="96" />
    <path
       id="path1125"
       d="m 85.75554,158.3166 -0.27752,0.69891 0.42355,0.38911 0.75084,-0.0937 0.12611,-0.82809 -0.43086,-0.26589 z"
       style="fill:#7c7c7c;fill-opacity:1;stroke:none;stroke-width:0.0700042px;stroke-linecap:butt;stroke-linejoin:miter;stroke-opacity:1"
       inkscape:export-xdpi="96"
       inkscape:export-ydpi="96" />
    <path
       inkscape:export-xdpi="96"
       inkscape:export-ydpi="96"
       id="path1127"
       style="fill:#b9b9a6;fill-opacity:0.302742;stroke:none;stroke-width:0.0700042px;stroke-linecap:butt;stroke-linejoin:miter;stroke-opacity:1"
       d="m 95.72042,153.00474 -4.79421,0.1493 -0.69922,-0.003 -0.11745,2.99843 0.50015,7.75736 -0.17925,7.0558 3.46863,0.23025 3.80129,-0.60625 c 0,0 0.79695,-0.003 1.5911,0.025 l -1.25147,-5.86054 0.80341,-10.84602 0.0588,-0.47335 z" />
    <path
       id="path1133"
       style="fill:#989898;fill-opacity:1;fill-rule:evenodd;stroke:none;stroke-width:0.0780262;stroke-opacity:0"
       d="m 88.6302,151.45834 -9.2552,0.50288 v 21.3408 h 26.45836 v -21.3408 l -6.34729,-0.0153 z"
       inkscape:export-xdpi="96"
       inkscape:export-ydpi="96" />
    <path
       id="path1135"
       style="fill:#8a8a8a;fill-opacity:1;fill-rule:evenodd;stroke:none;stroke-width:0.0755475;stroke-opacity:0"
       d="m 101.93106,152.72028 2.36935,0.66167 0.31898,0.0859 c 0,0 -0.45361,3.28063 -0.39897,3.58241 0.0546,0.30178 0.43493,3.39972 0.43493,3.39972 l -0.0518,3.2552 -0.27509,3.24279 0.4166,3.79834 -1.91445,0.28946 -3.910535,-0.4559 -3.52838,0.34661 -4.01048,0.26623 -3.80129,-0.60624 c 0,0 -2.73311,-0.0135 -3.11752,0.18624 -0.38441,0.19968 -2.99364,-0.1085 -2.99364,-0.1085 l -0.62061,-4.03989 c 0,0 0.13702,-4.07398 0.0848,-4.72189 -0.0522,-0.64791 -0.072,-3.41526 -0.32609,-3.98512 -0.25407,-0.56986 0.24953,-4.62343 0.24953,-4.62343 l 3.08593,0.46449 5.61757,-0.75368 4.79421,0.14928 3.40122,-0.0154 z"
       inkscape:export-xdpi="96"
       inkscape:export-ydpi="96" />
    <path
       style="fill:#7c7c7c;fill-opacity:1;stroke:none;stroke-width:0.0700042px;stroke-linecap:butt;stroke-linejoin:miter;stroke-opacity:1"
       d="m 100.85861,156.59686 -0.930688,1.49466 0.801738,1.86297 1.55166,0.66234 0.62863,-1.5109 -0.58904,-1.63586 0.0275,-1.10839 z"
       id="path1139"
       inkscape:export-xdpi="96"
       inkscape:export-ydpi="96" />
    <path
       style="fill:#7c7c7c;fill-opacity:1;stroke:none;stroke-width:0.0700042px;stroke-linecap:butt;stroke-linejoin:miter;stroke-opacity:1"
       d="m 87.679018,163.17493 -0.68665,1.10292 -0.004,0.91113 0.70334,0.25969 1.2096,-1.0574 -0.0964,-1.33394 z"
       id="path1141"
       inkscape:export-xdpi="96"
       inkscape:export-ydpi="96" />
    <path
       style="fill:#7c7c7c;fill-opacity:1;stroke:none;stroke-width:0.0700042px;stroke-linecap:butt;stroke-linejoin:miter;stroke-opacity:1"
       d="m 85.002392,162.9868 -0.27752,0.69891 0.42355,0.38911 0.75084,-0.0937 0.12611,-0.82809 -0.43086,-0.26589 z"
       id="path1143"
       inkscape:export-xdpi="96"
       inkscape:export-ydpi="96" />
    <path
       d="m 89.71655,153.00474 4.79421,0.1493 0.69922,-0.003 0.11745,2.99843 -0.50015,7.75736 0.17925,7.0558 -3.46863,0.23025 -3.80129,-0.60625 c 0,0 -0.79695,-0.003 -1.5911,0.025 l 1.25147,-5.86054 -0.80341,-10.84602 -0.0588,-0.47335 z"
       style="fill:#adadad;fill-opacity:0.168483;stroke:none;stroke-width:0.0700042px;stroke-linecap:butt;stroke-linejoin:miter;stroke-opacity:1"
       id="path1145"
       inkscape:export-xdpi="96"
       inkscape:export-ydpi="96" />
    <path
       inkscape:export-ydpi="96"
       inkscape:export-xdpi="96"
       sodipodi:nodetypes="cscccccccccccc"
       id="path1149"
       d="m 56.85736,3.70393 c 0,0 -0.91654,3.80902 -0.91654,4.10869 0,0.29969 0.95171,9.00361 0.95171,9.00361 l -0.41384,4.91529 3.79087,1.62428 8.15795,-0.0761 6.804,0.0963 1.03757,-9.17665 -0.99259,-9.19421 0.084,-2.39612 L 68.46442,2.52912 61.857,3.07057 57.67686,2.42188 Z"
       style="fill:#8a8a8a;fill-opacity:1;stroke:none;stroke-width:0.264583px;stroke-linecap:butt;stroke-linejoin:miter;stroke-opacity:1" />
    <g
       id="g1602">
      <rect
         inkscape:export-ydpi="96"
         inkscape:export-xdpi="96"
         y="23.812496"
         x="105.83334"
         height="101.86459"
         width="23.8125"
         id="rect1185"
         style="fill:#725742;fill-opacity:1;fill-rule:evenodd;stroke-width:0.0963891;stroke-opacity:0" />
      <rect
         style="fill:#725742;fill-opacity:1;fill-rule:evenodd;stroke:none;stroke-width:0.0710241;stroke-opacity:0"
         id="rect1151"
         width="10.583333"
         height="23.8125"
         x="129.64583"
         y="-3.2324219e-06" />
      <rect
         y="23.812496"
         x="129.64583"
         height="101.86459"
         width="10.583333"
         id="rect1155"
         style="fill:#725742;fill-opacity:1;fill-rule:evenodd;stroke:none;stroke-width:0.146898;stroke-opacity:0" />
      <path
         style="fill:#7b5d48;fill-opacity:1;stroke:none;stroke-width:0.243424px;stroke-linecap:butt;stroke-linejoin:miter;stroke-opacity:1"
         d="m 131.79396,2.93739 0.41975,4.3833 -0.51461,3.78256 0.63298,4.50546 -0.44968,4.26224 -0.33805,1.64379 2.36034,-0.0826 1.00733,-0.09227 1.06918,-5.141601 0.39596,5.222962 1.31894,-0.006 0.5998,-2.45513 -0.23489,-3.50904 c 0,0 0.33345,-4.99427 0.42147,-5.143 0.088,-0.1487 -0.74667,-4.75953 -0.74667,-4.75953 l 0.69624,-3.20426 -2.36131,-0.2534534 -0.58149,6.7767379 -0.49344,-6.5141645 -0.81262,0.020372 -0.39677,4.6682314 -0.45985,-4.7307844 -1.48675,-0.39844 z"
         id="path1159"
         sodipodi:nodetypes="cccccccccccccscccccccccc" />
      <path
         style="fill:#7b5d48;fill-opacity:1;stroke:none;stroke-width:0.254776px;stroke-linecap:butt;stroke-linejoin:miter;stroke-opacity:1"
         d="m 131.71198,25.269877 2.23397,0.54692 0.47094,-0.15393 0.25459,-0.106003 0.23466,-0.05391 0.4299,-0.14051 0.78379,5.620483 0.79828,-5.91595 1.20817,-0.008 0.0211,6.93933 0.49854,9.22399 -0.38425,7.79682 0.22804,9.96386 -0.93127,7.77899 1.00061,6.0643 -0.11992,9.25986 0.1247,7.51497 -0.1773,13.467103 0.56056,9.93566 -0.83183,9.04566 0.19551,1.53913 -2.00216,-0.63296 -1.06608,0.26531 -0.5397,-3.81801 -0.57037,4.09426 -0.36978,0.092 -2.07122,-0.0407 0.28304,-5.73837 -0.30679,-12.94249 0.49396,-8.984673 -0.97402,-9.4693 1.03957,-9.03478 -1.03339,-10.57164 0.6521,-8.63857 -0.54548,-10.76589 0.62476,-9.60938 -0.57351,-7.77705 z"
         id="path1165"
         sodipodi:nodetypes="cccccccccccccccccccccccccccccccccccccc" />
      <path
         style="fill:#725742;fill-opacity:1;stroke:none;stroke-width:0.264583px;stroke-linecap:butt;stroke-linejoin:miter;stroke-opacity:1"
         d="m 134.5066,83.25723 -0.77497,1.94858 0.43955,1.46484 0.97486,-0.67826 0.0566,-1.49357 z"
         id="path1167" />
      <path
         inkscape:export-ydpi="96"
         inkscape:export-xdpi="96"
         d="m 113.30024,25.88206 -5.36787,0.6042 0.40619,3.08061 -0.81965,3.64446 1.00609,7.78137 -1.44331,11.11473 0.60235,4.38768 -0.35699,9.57376 -0.28953,5.7083 c 0,0 1.76922,6.57168 1.70638,6.71406 -0.0628,0.14238 -1.57549,2.62608 -1.60733,2.73752 -0.0317,0.11145 0.5861,9.81501 0.5861,9.81501 l -0.66312,6.38433 0.41875,8.92954 -0.44818,5.57257 0.65122,7.89565 -0.2295,3.33758 2.08591,-0.40502 3.59257,0.75857 0.50267,-3.63136 -0.67261,-9.50656 1.86919,9.21523 -0.36448,4.00439 5.84865,-0.3413 4.25707,-0.11155 0.36166,-1.95231 0.0157,2.01717 2.2338,0.67405 0.48128,-2.99402 -0.34457,-5.28247 0.44804,-7.292 -0.92486,-12.64544 0.94898,-6.59536 -0.40313,-3.05813 0.69701,-9.21391 -1.31362,-5.5606 0.80687,-9.21419 c 0,0 -0.68825,-9.46667 -0.68825,-9.58224 0,-0.11556 0.80305,-9.54542 0.80305,-9.54542 l -0.22433,-6.69288 -0.0396,-9.77105 -2.8845,-0.46358 -2.41114,0.51243 -0.8679,2.44987 -0.0873,-2.31856 -2.93634,-0.71226 -2.93645,-0.0136 -0.36632,4.35727 -0.55953,3.51513 -0.92968,-3.4803 0.4318,-4.39869 z m 7.00108,41.24377 1.31632,2.05868 0.43917,1.36814 -0.77721,1.35827 -0.54588,1.58549 -1.35729,-1.6606 -0.56173,-1.33954 0.63065,-2.31149 z"
         style="fill:#7b5d48;fill-opacity:1;stroke:none;stroke-width:0.0551033px;stroke-linecap:butt;stroke-linejoin:miter;stroke-opacity:1"
         id="path1175"
         sodipodi:nodetypes="cccccccccccccccccccccccccccccccccccccsccccccccccccccccccccccc" />
      <path
         inkscape:export-ydpi="96"
         inkscape:export-xdpi="96"
         id="path1177"
         style="fill:#d7bd93;fill-opacity:0.0724942;stroke:none;stroke-width:0.0598542px;stroke-linecap:butt;stroke-linejoin:miter;stroke-opacity:1"
         d="m 115.34216,25.89159 0.51426,6.88682 -1.22317,8.46483 -0.0801,5.28669 0.49309,15.50291 -0.058,8.84598 2.39501,5.00927 c 0,0 -1.86761,3.70073 -1.86761,4.00119 0,0.30047 -1.3702,7.14379 -1.3702,7.89689 0,0.75309 0.88292,7.55738 0.88292,7.55738 l -0.40484,10.38946 1.17504,13.20334 -0.19958,4.59613 4.71458,-0.27509 3.54657,-0.093 0.43832,-3.18248 -0.43488,-6.00912 c 0,0 -1.55356,-17.0843 -1.55356,-17.41188 0,-0.32758 1.32959,-15.76822 1.32959,-15.76822 l -1.23853,-11.83611 0.43081,-10.6911 0.30431,-14.72116 -0.1107,-10.95764 -0.36941,-6.21225 -0.52384,0.1114 -0.86789,2.44982 -0.0873,-2.31856 -2.93632,-0.71221 z m 4.95911,41.23425 1.31632,2.05869 0.43918,1.36812 -0.77722,1.35823 -0.54587,1.58558 -1.35729,-1.66065 -0.56174,-1.33958 0.63066,-2.31145 z" />
      <rect
         y="-3.2324219e-06"
         x="140.22917"
         height="23.8125"
         width="10.583333"
         id="rect1197"
         style="fill:#725742;fill-opacity:1;fill-rule:evenodd;stroke:none;stroke-width:0.0710241;stroke-opacity:0" />
      <rect
         style="fill:#725742;fill-opacity:1;fill-rule:evenodd;stroke:none;stroke-width:0.146898;stroke-opacity:0"
         id="rect1199"
         width="10.583333"
         height="101.86459"
         x="140.22917"
         y="23.812496" />
      <path
         id="path1209"
         d="m 145.08994,83.25723 -0.77497,1.94858 0.43955,1.46484 0.97486,-0.67826 0.0566,-1.49357 z"
         style="fill:#694e3c;fill-opacity:1;stroke:none;stroke-width:0.264583px;stroke-linecap:butt;stroke-linejoin:miter;stroke-opacity:1" />
      <rect
         inkscape:export-ydpi="96"
         inkscape:export-xdpi="96"
         y="23.812496"
         x="150.81252"
         height="101.86459"
         width="23.8125"
         id="rect1213"
         style="fill:#725742;fill-opacity:1;fill-rule:evenodd;stroke-width:0.0963891;stroke-opacity:0" />
      <path
         inkscape:export-ydpi="96"
         inkscape:export-xdpi="96"
         d="m 158.27942,25.88206 -5.36787,0.6042 0.40619,3.08061 -0.81965,3.64446 1.00609,7.78137 -1.44331,11.11473 0.60235,4.38768 -0.35699,9.57376 -0.28953,5.7083 c 0,0 1.76922,6.57168 1.70638,6.71406 -0.0628,0.14238 -1.57549,2.62608 -1.60733,2.73752 -0.0317,0.11145 0.5861,9.81501 0.5861,9.81501 l -0.66312,6.38433 0.41875,8.92954 -0.44818,5.57257 0.65122,7.89565 -0.2295,3.33758 2.08591,-0.40502 3.59257,0.75857 0.50267,-3.63136 -0.67261,-9.50656 1.86919,9.21523 -0.36448,4.00439 5.84865,-0.3413 4.25707,-0.11155 0.36166,-1.95231 0.0157,2.01717 2.2338,0.67405 0.48128,-2.99402 -0.34457,-5.28247 0.44804,-7.292 -0.92486,-12.64544 0.94898,-6.59536 -0.40313,-3.05813 0.69701,-9.21391 -1.31362,-5.5606 0.80687,-9.21419 c 0,0 -0.68825,-9.46667 -0.68825,-9.58224 0,-0.11556 0.80305,-9.54542 0.80305,-9.54542 l -0.22433,-6.69288 -0.0396,-9.77105 -2.8845,-0.46358 -2.41114,0.51243 -0.8679,2.44987 -0.0873,-2.31856 -2.93634,-0.71226 -2.93645,-0.0136 -0.36632,4.35727 -0.55953,3.51513 -0.92968,-3.4803 0.4318,-4.39869 z m 7.00108,41.24377 1.31632,2.05868 0.43917,1.36814 -0.77721,1.35827 -0.54588,1.58549 -1.35729,-1.6606 -0.56173,-1.33954 0.63065,-2.31149 z"
         style="fill:#7b5d48;fill-opacity:1;stroke:none;stroke-width:0.0551033px;stroke-linecap:butt;stroke-linejoin:miter;stroke-opacity:1"
         id="path1219" />
      <path
         inkscape:export-ydpi="96"
         inkscape:export-xdpi="96"
         id="path1221"
         style="fill:#d7bd93;fill-opacity:0.0724942;stroke:none;stroke-width:0.0598542px;stroke-linecap:butt;stroke-linejoin:miter;stroke-opacity:1"
         d="m 160.32134,25.89159 0.51426,6.88682 -1.22317,8.46483 -0.0801,5.28669 0.49309,15.50291 -0.058,8.84598 2.39501,5.00927 c 0,0 -1.86761,3.70073 -1.86761,4.00119 0,0.30047 -1.3702,7.14379 -1.3702,7.89689 0,0.75309 0.88292,7.55738 0.88292,7.55738 l -0.40484,10.38946 1.17504,13.20334 -0.19958,4.59613 4.71458,-0.27509 3.54657,-0.093 0.43832,-3.18248 -0.43488,-6.00912 c 0,0 -1.55356,-17.0843 -1.55356,-17.41188 0,-0.32758 1.32959,-15.76822 1.32959,-15.76822 l -1.23853,-11.83611 0.43081,-10.6911 0.30431,-14.72116 -0.1107,-10.95764 -0.36941,-6.21225 -0.52384,0.1114 -0.86789,2.44982 -0.0873,-2.31856 -2.93632,-0.71221 z m 4.95911,41.23425 1.31632,2.05869 0.43918,1.36812 -0.77722,1.35823 -0.54587,1.58558 -1.35729,-1.66065 -0.56174,-1.33958 0.63066,-2.31145 z" />
      <path
         sodipodi:nodetypes="cccccccccccccccccccccccccccccccccccccc"
         id="path1437"
         d="m 142.24475,25.269877 2.23397,0.54692 0.47094,-0.15393 0.25459,-0.106003 0.23466,-0.05391 0.4299,-0.14051 0.78379,5.620483 0.79828,-5.91595 1.20817,-0.008 0.0211,6.93933 0.49854,9.22399 -0.38425,7.79682 0.22804,9.96386 -0.93127,7.77899 1.00061,6.0643 -0.11992,9.25986 0.1247,7.51497 -0.1773,13.467103 0.56056,9.93566 -0.83183,9.04566 0.19551,1.53913 -2.00216,-0.63296 -1.06608,0.26531 -0.5397,-3.81801 -0.57037,4.09426 -0.36978,0.092 -2.07122,-0.0407 0.28304,-5.73837 -0.30679,-12.94249 0.49396,-8.984673 -0.97402,-9.4693 1.03957,-9.03478 -1.03339,-10.57164 0.6521,-8.63857 -0.54548,-10.76589 0.62476,-9.60938 -0.57351,-7.77705 z"
         style="fill:#7b5d48;fill-opacity:1;stroke:none;stroke-width:0.254776px;stroke-linecap:butt;stroke-linejoin:miter;stroke-opacity:1" />
      <path
         id="path1435"
         d="m 144.53149,83.25723 -0.77497,1.94858 0.43955,1.46484 0.97486,-0.67826 0.0566,-1.49357 z"
         style="fill:#725742;fill-opacity:1;stroke:none;stroke-width:0.264583px;stroke-linecap:butt;stroke-linejoin:miter;stroke-opacity:1" />
      <path
         sodipodi:nodetypes="cccccccccccccscccccccccc"
         id="path1439"
         d="m 142.24247,2.93739 0.41975,4.3833 -0.51461,3.78256 0.63298,4.50546 -0.44968,4.26224 -0.33805,1.64379 2.36034,-0.0826 1.00733,-0.09227 1.06918,-5.141601 0.39596,5.222962 1.31894,-0.006 0.5998,-2.45513 -0.23489,-3.50904 c 0,0 0.33345,-4.99427 0.42147,-5.143 0.088,-0.1487 -0.74667,-4.75953 -0.74667,-4.75953 l 0.69624,-3.20426 -2.36131,-0.2534534 -0.58149,6.7767379 -0.49344,-6.5141645 -0.81262,0.020372 -0.39677,4.6682314 -0.45985,-4.7307844 -1.48675,-0.39844 z"
         style="fill:#7b5d48;fill-opacity:1;stroke:none;stroke-width:0.243424px;stroke-linecap:butt;stroke-linejoin:miter;stroke-opacity:1" />
    </g>
    <path
       d="m 92.398754,72.915981 -0.950846,1.356506 -0.700731,2.96106 0.623734,1.716172 1.508435,2.127004 0.606165,-2.030883 0.864029,-1.739948 -0.488341,-1.752864 z"
       style="fill:#68513c;fill-opacity:1;fill-rule:evenodd;stroke:none;stroke-width:0.264583;stroke-opacity:0"
       id="rect1608" />
    <rect
       inkscape:export-ydpi="96"
       inkscape:export-xdpi="96"
       style="fill:#694e3c;fill-opacity:1;fill-rule:evenodd;stroke-width:0.121989;stroke-opacity:0"
       id="rect1664"
       width="26.458334"
       height="146.84375"
       x="2.3030067e-05"
       y="26.458344" />
    <path
       inkscape:export-ydpi="96"
       inkscape:export-xdpi="96"
       id="path1666"
       style="fill:#7b5d48;fill-opacity:1;stroke:none;stroke-width:0.0644477px;stroke-linecap:butt;stroke-linejoin:miter;stroke-opacity:1"
       d="m 8.48775,29.10963 -5.96431,0.74385 0.45133,3.79266 -0.91074,4.48681 1.11789,9.57992 -1.60368,13.68373 0.66928,5.40182 -0.39665,11.78659 -0.32171,7.02768 c 0,0 1.96581,8.09063 1.89599,8.26591 -0.0698,0.17529 -1.75057,3.23306 -1.78593,3.37026 -0.0353,0.13721 0.65123,12.0836 0.65123,12.0836 l -0.73682,7.85997 0.46528,10.99347 -0.49796,6.86058 0.72356,9.7206 -0.25499,4.10903 2.31766,-0.49865 3.99175,0.93391 0.55853,-4.4707 -0.74735,-11.70384 2.07689,11.34518 -0.40499,4.92995 6.49851,-0.4202 4.73008,-0.13732 0.40184,-2.40356 0.0165,2.4834 2.48201,0.82985 0.53474,-3.68605 -0.38284,-6.50342 0.49782,-8.97744 -1.02764,-15.56824 1.05444,-8.11977 -0.44792,-3.76497 0.77443,-11.34356 -1.45957,-6.84586 0.89652,-11.34391 c 0,0 -0.76471,-11.65474 -0.76471,-11.79701 0,-0.14228 0.89228,-11.75171 0.89228,-11.75171 l -0.24925,-8.23983 -0.044,-12.02948 -3.20502,-0.57074 -2.67903,0.63088 -0.96434,3.01612 -0.0969,-2.85446 -3.26259,-0.87689 -3.26272,-0.0167 -0.40704,5.36439 -0.62169,4.32759 -1.03298,-4.28471 0.47978,-5.41538 z m 7.77896,50.77664 1.46257,2.53451 0.48798,1.68438 -0.86357,1.6722 -0.60652,1.95196 -1.5081,-2.04443 -0.62416,-1.64915 0.70073,-2.84577 z" />
    <path
       d="m 10.75655,29.12138 0.57138,8.47859 -1.35906,10.42136 -0.0889,6.50862 0.54787,19.08616 -0.0644,10.8906 2.66113,6.16708 c 0,0 -2.07512,4.5561 -2.07512,4.92601 0,0.36991 -1.52246,8.79496 -1.52246,9.72212 0,0.92716 0.98102,9.30416 0.98102,9.30416 l -0.44983,12.79083 1.30561,16.25509 -0.22177,5.65845 5.23843,-0.33867 3.94062,-0.11444 0.48702,-3.91806 -0.4832,-7.39803 c 0,0 -1.72618,-21.03307 -1.72618,-21.43637 0,-0.4033 1.47734,-19.41281 1.47734,-19.41281 L 18.59989,82.14023 19.07857,68.97805 19.4167,50.85431 19.29364,37.36398 l -0.41045,-7.64811 -0.58205,0.13714 -0.96433,3.01606 -0.097,-2.85445 -3.26258,-0.87683 z m 5.51011,50.76491 1.46257,2.53451 0.48798,1.68434 -0.86357,1.67217 -0.60652,1.95206 -1.5081,-2.04448 -0.62416,-1.64921 0.70072,-2.8457 z"
       style="fill:#d7bd93;fill-opacity:0.114989;stroke:none;stroke-width:0.0700042px;stroke-linecap:butt;stroke-linejoin:miter;stroke-opacity:1"
       id="path1668"
       inkscape:export-ydpi="96"
       inkscape:export-xdpi="96" />
    <rect
       inkscape:export-ydpi="96"
       inkscape:export-xdpi="96"
       y="26.458344"
       x="2.3030067e-05"
       height="146.84375"
       width="26.458334"
       id="rect1670"
       style="fill:#68513c;fill-opacity:1;fill-rule:evenodd;stroke-width:0.121989;stroke-opacity:0" />
    <path
       id="path1672"
       style="fill:#7b5d48;fill-opacity:1;stroke:none;stroke-width:0.0657421px;stroke-linecap:butt;stroke-linejoin:miter;stroke-opacity:1"
       d="m 17.946707,29.10985 5.964493,0.773596 -0.45165,3.94653 0.91106,4.668965 -1.11777,9.968383 1.60352,14.238925 -0.66921,5.621361 0.39636,12.264369 0.32195,7.312731 c 0,0 -1.96583,8.419153 -1.89601,8.601544 0.0698,0.182398 1.75057,3.363992 1.78594,3.506756 0.0353,0.14278 -0.65113,12.57391 -0.65113,12.57391 l 0.73691,8.17883 -0.46561,11.43962 0.49816,7.13858 -0.72347,10.11514 0.25477,4.27571 -2.31769,-0.51883 -3.991485,0.97152 -0.558623,-4.65192 0.747242,-12.17858 -2.076876,11.80548 0.405143,5.12992 -6.498828,-0.43718 -4.729946,-0.14315 -0.402042,-2.50114 -0.01654,2.58434 -2.482019,0.86352 -0.534334,-3.83543 0.382924,-6.76755 -0.49816,-9.34154 1.027842,-16.19953 -1.054716,-8.4491 0.448035,-3.91811 L 1.520834,94.34411 2.980178,87.220514 2.08359,75.416068 c 0,0 0.764812,-12.127169 0.764812,-12.27522 0,-0.148039 -0.892453,-12.22871 -0.892453,-12.22871 l 0.249598,-8.574154 0.04393,-12.517583 3.204972,-0.593762 2.678906,0.656291 0.964282,3.138826 0.09715,-2.97036 3.262334,-0.912606 3.262849,-0.01705 0.40721,5.581571 0.621668,4.5036 1.033012,-4.458642 -0.480075,-5.635316 z" />
    <path
       id="path1674"
       style="fill:#d7bd93;fill-opacity:0.0724942;stroke:none;stroke-width:0.07141px;stroke-linecap:butt;stroke-linejoin:miter;stroke-opacity:1"
       d="m 15.930521,29.121737 -0.57154,8.822717 1.35909,10.844299 0.08888,6.772196 -0.54777,19.860802 0.0646,11.332125 -2.661336,6.417696 c 0,0 2.075326,4.740876 2.075326,5.125786 0,0.384919 1.522388,9.151402 1.522388,10.116182 0,0.96477 -0.981336,9.68158 -0.981336,9.68158 l 0.450101,13.30978 -1.305864,16.91473 0.221691,5.88801 -5.238437,-0.35243 -3.940329,-0.11938 -0.487309,-4.07675 0.483174,-7.69824 c 0,0 1.726509,-21.88647 1.726509,-22.30613 0,-0.41965 -1.477428,-20.200318 -1.477428,-20.200318 L 8.087074,84.291494 7.608551,70.595174 7.27007,51.736376 7.393577,37.698992 l 0.410311,-7.958688 0.581877,0.142626 0.964282,3.138826 0.09715,-2.97036 3.262334,-0.912606 z" />
    <path
       inkscape:export-ydpi="96"
       inkscape:export-xdpi="96"
       id="path1678"
       style="fill:#857668;fill-opacity:1;fill-rule:evenodd;stroke:none;stroke-width:0.0780262;stroke-opacity:0"
       d="M 9.2552,151.45834 0,151.96122 v 21.3408 h 26.45836 v -21.3408 l -6.34729,-0.0153 z" />
    <path
       inkscape:export-ydpi="96"
       inkscape:export-xdpi="96"
       id="path1680"
       style="fill:#a09286;fill-opacity:1;fill-rule:evenodd;stroke:none;stroke-width:0.0755475;stroke-opacity:0"
       d="m 3.97425,152.72028 -2.36935,0.66167 -0.31898,0.0859 c 0,0 0.45361,3.28063 0.39897,3.58241 -0.0546,0.30178 -0.43493,3.39972 -0.43493,3.39972 l 0.0518,3.2552 0.27509,3.24279 -0.4166,3.79834 1.91445,0.28946 3.91054,-0.4559 3.52838,0.34661 4.01048,0.26623 3.80129,-0.60624 c 0,0 2.73311,-0.0135 3.11752,0.18624 0.38441,0.19968 2.99364,-0.1085 2.99364,-0.1085 l 0.62061,-4.03989 c 0,0 -0.13702,-4.07398 -0.0848,-4.72189 0.0522,-0.64791 0.072,-3.41526 0.32609,-3.98512 0.25407,-0.56986 -0.24953,-4.62343 -0.24953,-4.62343 l -3.08593,0.46449 -5.61757,-0.75368 -4.79421,0.14928 -3.40122,-0.0154 z" />
    <path
       inkscape:export-ydpi="96"
       inkscape:export-xdpi="96"
       style="fill:#7c7c7c;fill-opacity:1;stroke:none;stroke-width:0.0700042px;stroke-linecap:butt;stroke-linejoin:miter;stroke-opacity:1"
       d="m 19.64915,164.73681 -0.93069,1.49466 0.80174,1.86297 1.55166,0.66234 0.62863,-1.5109 -0.58904,-1.63586 0.0275,-1.10839 z"
       id="path1682" />
    <path
       inkscape:export-ydpi="96"
       inkscape:export-xdpi="96"
       style="fill:#7c7c7c;fill-opacity:1;stroke:none;stroke-width:0.0700042px;stroke-linecap:butt;stroke-linejoin:miter;stroke-opacity:1"
       d="m 6.53444,159.80026 -0.68665,1.10292 -0.004,0.91113 0.70334,0.25969 1.2096,-1.0574 -0.0964,-1.33394 z"
       id="path1684" />
    <path
       inkscape:export-ydpi="96"
       inkscape:export-xdpi="96"
       style="fill:#7c7c7c;fill-opacity:1;stroke:none;stroke-width:0.0700042px;stroke-linecap:butt;stroke-linejoin:miter;stroke-opacity:1"
       d="m 6.38054,158.3166 -0.27752,0.69891 0.42355,0.38911 0.75084,-0.0937 0.12611,-0.82809 -0.43086,-0.26589 z"
       id="path1686" />
    <path
       d="m 16.34542,153.00474 -4.79421,0.1493 -0.69922,-0.003 -0.11745,2.99843 0.50015,7.75736 -0.17925,7.0558 3.46863,0.23025 3.80129,-0.60625 c 0,0 0.79695,-0.003 1.5911,0.025 l -1.25147,-5.86054 0.80341,-10.84602 0.0588,-0.47335 z"
       style="fill:#b9b9a6;fill-opacity:0.302742;stroke:none;stroke-width:0.0700042px;stroke-linecap:butt;stroke-linejoin:miter;stroke-opacity:1"
       id="path1688"
       inkscape:export-ydpi="96"
       inkscape:export-xdpi="96" />
    <path
       inkscape:export-ydpi="96"
       inkscape:export-xdpi="96"
       d="M 9.2552,151.45834 0,151.96122 v 21.3408 h 26.45836 v -21.3408 l -6.34729,-0.0153 z"
       style="fill:#989898;fill-opacity:1;fill-rule:evenodd;stroke:none;stroke-width:0.0780262;stroke-opacity:0"
       id="path1690" />
    <path
       inkscape:export-ydpi="96"
       inkscape:export-xdpi="96"
       d="m 22.55606,152.72028 2.36935,0.66167 0.31898,0.0859 c 0,0 -0.45361,3.28063 -0.39897,3.58241 0.0546,0.30178 0.43493,3.39972 0.43493,3.39972 l -0.0518,3.2552 -0.27509,3.24279 0.4166,3.79834 -1.91445,0.28946 -3.910535,-0.4559 -3.52838,0.34661 -4.01048,0.26623 -3.80129,-0.60624 c 0,0 -2.73311,-0.0135 -3.11752,0.18624 -0.38441,0.19968 -2.99364,-0.1085 -2.99364,-0.1085 l -0.62061,-4.03989 c 0,0 0.13702,-4.07398 0.0848,-4.72189 -0.0522,-0.64791 -0.072,-3.41526 -0.32609,-3.98512 -0.25407,-0.56986 0.24953,-4.62343 0.24953,-4.62343 l 3.08593,0.46449 5.61757,-0.75368 4.79421,0.14928 3.40122,-0.0154 z"
       style="fill:#8a8a8a;fill-opacity:1;fill-rule:evenodd;stroke:none;stroke-width:0.0755475;stroke-opacity:0"
       id="path1692" />
    <path
       inkscape:export-ydpi="96"
       inkscape:export-xdpi="96"
       id="path1694"
       d="m 21.48361,156.59686 -0.930688,1.49466 0.801738,1.86297 1.55166,0.66234 0.62863,-1.5109 -0.58904,-1.63586 0.0275,-1.10839 z"
       style="fill:#7c7c7c;fill-opacity:1;stroke:none;stroke-width:0.0700042px;stroke-linecap:butt;stroke-linejoin:miter;stroke-opacity:1" />
    <path
       inkscape:export-ydpi="96"
       inkscape:export-xdpi="96"
       id="path1696"
       d="m 8.304018,163.17493 -0.68665,1.10292 -0.004,0.91113 0.70334,0.25969 1.2096,-1.0574 -0.0964,-1.33394 z"
       style="fill:#7c7c7c;fill-opacity:1;stroke:none;stroke-width:0.0700042px;stroke-linecap:butt;stroke-linejoin:miter;stroke-opacity:1" />
    <path
       inkscape:export-ydpi="96"
       inkscape:export-xdpi="96"
       id="path1698"
       d="m 5.627392,162.9868 -0.27752,0.69891 0.42355,0.38911 0.75084,-0.0937 0.12611,-0.82809 -0.43086,-0.26589 z"
       style="fill:#7c7c7c;fill-opacity:1;stroke:none;stroke-width:0.0700042px;stroke-linecap:butt;stroke-linejoin:miter;stroke-opacity:1" />
    <path
       inkscape:export-ydpi="96"
       inkscape:export-xdpi="96"
       id="path1700"
       style="fill:#adadad;fill-opacity:0.168483;stroke:none;stroke-width:0.0700042px;stroke-linecap:butt;stroke-linejoin:miter;stroke-opacity:1"
       d="m 10.34155,153.00474 4.79421,0.1493 0.69922,-0.003 0.11745,2.99843 -0.50015,7.75736 0.17925,7.0558 -3.46863,0.23025 -3.80129,-0.60625 c 0,0 -0.79695,-0.003 -1.5911,0.025 l 1.25147,-5.86054 -0.80341,-10.84602 -0.0588,-0.47335 z" />
    <path
       id="path1702"
       style="fill:#68513c;fill-opacity:1;fill-rule:evenodd;stroke:none;stroke-width:0.264583;stroke-opacity:0"
       d="m 13.023754,72.915981 -0.950846,1.356506 -0.700731,2.96106 0.623734,1.716172 1.508435,2.127004 0.606165,-2.030883 0.864029,-1.739948 -0.488341,-1.752864 z" />
    <text
       xml:space="preserve"
       id="text3386"
       style="fill:black;fill-opacity:1;stroke:none;font-family:sans-serif;font-style:normal;font-weight:normal;font-size:10.58333333px;line-height:1.25;letter-spacing:0px;word-spacing:0px;white-space:pre;shape-inside:url(#rect3388);" />
    <rect
       inkscape:export-ydpi="96"
       inkscape:export-xdpi="96"
       y="-3.1442275"
       x="315.49191"
       height="297"
       width="210"
       id="rect3392"
       style="fill:#000000;fill-opacity:1;fill-rule:evenodd;stroke-width:0.264583;stroke-opacity:0" />
    <text
       inkscape:export-ydpi="96"
       inkscape:export-xdpi="96"
       id="text1647"
       y="39.01878"
       x="355.8157"
       style="font-size:11.8947px;line-height:1.25;font-family:'Ultima Runes';-inkscape-font-specification:'Ultima Runes';letter-spacing:0px;word-spacing:0px;writing-mode:lr-tb;direction:ltr;fill:#ffffff;fill-opacity:1;stroke-width:0.264583;"
       xml:space="preserve"><tspan
         id="tspan1675"
         style="text-align:center;writing-mode:lr-tb;direction:ltr;text-anchor:middle;fill:#ffffff;fill-opacity:1;stroke-width:0.264583;"
         y="39.01878"
         x="355.8157"
         sodipodi:role="line">T</tspan><tspan
         id="tspan1715"
         style="text-align:center;writing-mode:lr-tb;direction:ltr;text-anchor:middle;fill:#ffffff;fill-opacity:1;stroke-width:0.264583;"
         y="53.887154"
         x="355.8157"
         sodipodi:role="line">A</tspan><tspan
         id="tspan1717"
         style="text-align:center;writing-mode:lr-tb;direction:ltr;text-anchor:middle;fill:#ffffff;fill-opacity:1;stroke-width:0.264583;"
         y="68.755531"
         x="355.8157"
         sodipodi:role="line">R</tspan><tspan
         id="tspan1719"
         style="text-align:center;writing-mode:lr-tb;direction:ltr;text-anchor:middle;fill:#ffffff;fill-opacity:1;stroke-width:0.264583;"
         y="83.623901"
         x="355.8157"
         sodipodi:role="line">U</tspan><tspan
         id="tspan1721"
         style="text-align:center;writing-mode:lr-tb;direction:ltr;text-anchor:middle;fill:#ffffff;fill-opacity:1;stroke-width:0.264583;"
         y="98.492279"
         x="355.8157"
         sodipodi:role="line">L</tspan><tspan
         id="tspan1723"
         style="text-align:center;writing-mode:lr-tb;direction:ltr;text-anchor:middle;fill:#ffffff;fill-opacity:1;stroke-width:0.264583;"
         y="113.36066"
         x="355.8157"
         sodipodi:role="line">P</tspan><tspan
         id="tspan1725"
         style="text-align:center;writing-mode:lr-tb;direction:ltr;text-anchor:middle;fill:#ffffff;fill-opacity:1;stroke-width:0.264583;"
         y="128.22903"
         x="355.8157"
         sodipodi:role="line">O</tspan><tspan
         id="tspan1727"
         style="writing-mode:lr-tb;direction:ltr;fill:#ffffff;fill-opacity:1;stroke-width:0.264583;"
         y="143.09741"
         x="358.04596"
         sodipodi:role="line"><tspan
   id="tspan1785"
   style="text-align:center;text-anchor:middle;fill:#ffffff;fill-opacity:1;">Z</tspan> </tspan></text>
    <text
       inkscape:export-ydpi="96"
       inkscape:export-xdpi="96"
       xml:space="preserve"
       style="font-size:11.8947px;line-height:1.25;font-family:'Ultima Runes';-inkscape-font-specification:'Ultima Runes';letter-spacing:0px;word-spacing:0px;writing-mode:lr-tb;direction:ltr;fill:#ffffff;fill-opacity:1;stroke-width:0.264583;"
       x="329.18689"
       y="39.01878"
       id="text1745"><tspan
         sodipodi:role="line"
         x="329.18689"
         y="39.01878"
         style="text-align:center;writing-mode:lr-tb;direction:ltr;text-anchor:middle;fill:#ffffff;fill-opacity:1;stroke-width:0.264583;"
         id="tspan1729">C</tspan><tspan
         sodipodi:role="line"
         x="329.18689"
         y="53.887154"
         style="text-align:center;writing-mode:lr-tb;direction:ltr;text-anchor:middle;fill:#ffffff;fill-opacity:1;stroke-width:0.264583;"
         id="tspan1731">Q</tspan><tspan
         sodipodi:role="line"
         x="329.18689"
         y="68.755531"
         style="text-align:center;writing-mode:lr-tb;direction:ltr;text-anchor:middle;fill:#ffffff;fill-opacity:1;stroke-width:0.264583;"
         id="tspan1733">T</tspan><tspan
         sodipodi:role="line"
         x="329.18689"
         y="83.623901"
         style="text-align:center;writing-mode:lr-tb;direction:ltr;text-anchor:middle;fill:#ffffff;fill-opacity:1;stroke-width:0.264583;"
         id="tspan1735">A</tspan><tspan
         sodipodi:role="line"
         x="329.18689"
         y="98.492279"
         style="text-align:center;writing-mode:lr-tb;direction:ltr;text-anchor:middle;fill:#ffffff;fill-opacity:1;stroke-width:0.264583;"
         id="tspan1737">E</tspan><tspan
         sodipodi:role="line"
         x="329.18689"
         y="113.36066"
         style="text-align:center;writing-mode:lr-tb;direction:ltr;text-anchor:middle;fill:#ffffff;fill-opacity:1;stroke-width:0.264583;"
         id="tspan1739">N</tspan><tspan
         sodipodi:role="line"
         x="329.18689"
         y="128.22903"
         style="text-align:center;writing-mode:lr-tb;direction:ltr;text-anchor:middle;fill:#ffffff;fill-opacity:1;stroke-width:0.264583;"
         id="tspan1741">D</tspan><tspan
         sodipodi:role="line"
         x="331.41714"
         y="143.09741"
         style="writing-mode:lr-tb;direction:ltr;fill:#ffffff;fill-opacity:1;stroke-width:0.264583;"
         id="tspan1743"><tspan
   id="tspan1783"
   style="text-align:center;text-anchor:middle;fill:#ffffff;fill-opacity:1;">S</tspan> </tspan></text>
    <text
       inkscape:export-ydpi="96"
       inkscape:export-xdpi="96"
       id="text1763"
       y="39.01878"
       x="381.15216"
       style="font-size:11.8947px;line-height:1.25;font-family:'Ultima Runes';-inkscape-font-specification:'Ultima Runes';letter-spacing:0px;word-spacing:0px;writing-mode:lr-tb;direction:ltr;fill:#ffffff;fill-opacity:1;stroke-width:0.264583;"
       xml:space="preserve"><tspan
         id="tspan1822"
         style="text-align:center;writing-mode:lr-tb;direction:ltr;text-anchor:middle;fill:#ffffff;fill-opacity:1;stroke-width:0.264583;"
         y="39.01878"
         x="381.15216"
         sodipodi:role="line">J</tspan><tspan
         id="tspan1826"
         style="text-align:center;writing-mode:lr-tb;direction:ltr;text-anchor:middle;fill:#ffffff;fill-opacity:1;stroke-width:0.264583;"
         y="53.887154"
         x="381.15216"
         sodipodi:role="line">P</tspan><tspan
         id="tspan1828"
         style="text-align:center;writing-mode:lr-tb;direction:ltr;text-anchor:middle;fill:#ffffff;fill-opacity:1;stroke-width:0.264583;"
         y="68.755531"
         x="381.15216"
         sodipodi:role="line">X</tspan><tspan
         id="tspan1830"
         style="text-align:center;writing-mode:lr-tb;direction:ltr;text-anchor:middle;fill:#ffffff;fill-opacity:1;stroke-width:0.264583;"
         y="83.623901"
         x="381.15216"
         sodipodi:role="line">Y</tspan><tspan
         id="tspan1832"
         style="text-align:center;writing-mode:lr-tb;direction:ltr;text-anchor:middle;fill:#ffffff;fill-opacity:1;stroke-width:0.264583;"
         y="98.492279"
         x="381.15216"
         sodipodi:role="line">A</tspan><tspan
         id="tspan1836"
         style="text-align:center;writing-mode:lr-tb;direction:ltr;text-anchor:middle;fill:#ffffff;fill-opacity:1;stroke-width:0.264583;"
         y="113.36066"
         x="381.15216"
         sodipodi:role="line">M</tspan><tspan
         id="tspan1838"
         style="text-align:center;writing-mode:lr-tb;direction:ltr;text-anchor:middle;fill:#ffffff;fill-opacity:1;stroke-width:0.264583;"
         y="128.22903"
         x="381.15216"
         sodipodi:role="line">T</tspan><tspan
         id="tspan1840"
         style="text-align:center;writing-mode:lr-tb;direction:ltr;text-anchor:middle;fill:#ffffff;fill-opacity:1;stroke-width:0.264583;"
         y="143.09741"
         x="381.15216"
         sodipodi:role="line">U</tspan><tspan
         id="tspan1834"
         style="writing-mode:lr-tb;direction:ltr;fill:#ffffff;fill-opacity:1;stroke-width:0.264583;"
         y="157.96577"
         x="381.15216"
         sodipodi:role="line"> </tspan></text>
    <text
       inkscape:export-ydpi="96"
       inkscape:export-xdpi="96"
       xml:space="preserve"
       style="font-size:11.8947px;line-height:1.25;font-family:'Ultima Runes';-inkscape-font-specification:'Ultima Runes';letter-spacing:0px;word-spacing:0px;writing-mode:lr-tb;direction:ltr;fill:#ffffff;fill-opacity:1;stroke-width:0.264583;"
       x="408.77811"
       y="39.01878"
       id="text1781"><tspan
         id="tspan1877"
         sodipodi:role="line"
         x="408.77811"
         y="39.01878"
         style="text-align:center;writing-mode:lr-tb;direction:ltr;text-anchor:middle;fill:#ffffff;fill-opacity:1;stroke-width:0.264583;">L</tspan><tspan
         id="tspan1881"
         sodipodi:role="line"
         x="408.77811"
         y="53.887154"
         style="text-align:center;writing-mode:lr-tb;direction:ltr;text-anchor:middle;fill:#ffffff;fill-opacity:1;stroke-width:0.264583;">A</tspan><tspan
         id="tspan1883"
         sodipodi:role="line"
         x="408.77811"
         y="68.755531"
         style="text-align:center;writing-mode:lr-tb;direction:ltr;text-anchor:middle;fill:#ffffff;fill-opacity:1;stroke-width:0.264583;">U</tspan><tspan
         id="tspan1885"
         sodipodi:role="line"
         x="408.77811"
         y="83.623901"
         style="text-align:center;writing-mode:lr-tb;direction:ltr;text-anchor:middle;fill:#ffffff;fill-opacity:1;stroke-width:0.264583;">R</tspan><tspan
         id="tspan1887"
         sodipodi:role="line"
         x="408.77811"
         y="98.492279"
         style="text-align:center;writing-mode:lr-tb;direction:ltr;text-anchor:middle;fill:#ffffff;fill-opacity:1;stroke-width:0.264583;">A</tspan><tspan
         id="tspan1893"
         sodipodi:role="line"
         x="408.77811"
         y="113.36066"
         style="text-align:center;writing-mode:lr-tb;direction:ltr;text-anchor:middle;fill:#ffffff;fill-opacity:1;stroke-width:0.264583;">L</tspan><tspan
         id="tspan1901"
         sodipodi:role="line"
         x="408.77811"
         y="128.22903"
         style="text-align:center;writing-mode:lr-tb;direction:ltr;text-anchor:middle;fill:#ffffff;fill-opacity:1;stroke-width:0.264583;">O</tspan><tspan
         id="tspan1903"
         sodipodi:role="line"
         x="411.00836"
         y="143.09741"
         style="writing-mode:lr-tb;direction:ltr;fill:#ffffff;fill-opacity:1;stroke-width:0.264583;"><tspan
   id="tspan1905"
   style="text-align:center;text-anchor:middle;fill:#ffffff;fill-opacity:1;">V</tspan> </tspan></text>
    <text
       xml:space="preserve"
       style="font-size:11.8947px;line-height:1.25;font-family:'Ultima Runes';-inkscape-font-specification:'Ultima Runes';letter-spacing:0px;word-spacing:0px;writing-mode:lr-tb;direction:ltr;fill:#3fffff;fill-opacity:1;stroke-width:0.264583"
       x="40.323799"
       y="42.163006"
       id="text2167"
       inkscape:export-xdpi="96"
       inkscape:export-ydpi="96"><tspan
         sodipodi:role="line"
         x="40.323799"
         y="42.163006"
         style="text-align:center;writing-mode:lr-tb;direction:ltr;text-anchor:middle;fill:#3fffff;fill-opacity:1;stroke-width:0.264583"
         id="tspan2149">T</tspan><tspan
         sodipodi:role="line"
         x="40.323799"
         y="57.03138"
         style="text-align:center;writing-mode:lr-tb;direction:ltr;text-anchor:middle;fill:#3fffff;fill-opacity:1;stroke-width:0.264583"
         id="tspan2151">A</tspan><tspan
         sodipodi:role="line"
         x="40.323799"
         y="71.899757"
         style="text-align:center;writing-mode:lr-tb;direction:ltr;text-anchor:middle;fill:#3fffff;fill-opacity:1;stroke-width:0.264583"
         id="tspan2153">R</tspan><tspan
         sodipodi:role="line"
         x="40.323799"
         y="86.768127"
         style="text-align:center;writing-mode:lr-tb;direction:ltr;text-anchor:middle;fill:#3fffff;fill-opacity:1;stroke-width:0.264583"
         id="tspan2155">U</tspan><tspan
         sodipodi:role="line"
         x="40.323799"
         y="101.63651"
         style="text-align:center;writing-mode:lr-tb;direction:ltr;text-anchor:middle;fill:#3fffff;fill-opacity:1;stroke-width:0.264583"
         id="tspan2157">L</tspan><tspan
         sodipodi:role="line"
         x="40.323799"
         y="116.50488"
         style="text-align:center;writing-mode:lr-tb;direction:ltr;text-anchor:middle;fill:#3fffff;fill-opacity:1;stroke-width:0.264583"
         id="tspan2159">P</tspan><tspan
         sodipodi:role="line"
         x="40.323799"
         y="131.37326"
         style="text-align:center;writing-mode:lr-tb;direction:ltr;text-anchor:middle;fill:#3fffff;fill-opacity:1;stroke-width:0.264583"
         id="tspan2161">O</tspan><tspan
         sodipodi:role="line"
         x="42.554054"
         y="146.24164"
         style="writing-mode:lr-tb;direction:ltr;fill:#3fffff;fill-opacity:1;stroke-width:0.264583"
         id="tspan2165"><tspan
   style="text-align:center;text-anchor:middle;fill:#3fffff;fill-opacity:1"
   id="tspan2163">Z</tspan> </tspan></text>
    <text
       id="text2187"
       y="42.163006"
       x="13.694977"
       style="font-size:11.8947px;line-height:1.25;font-family:'Ultima Runes';-inkscape-font-specification:'Ultima Runes';letter-spacing:0px;word-spacing:0px;writing-mode:lr-tb;direction:ltr;fill:#3fffff;fill-opacity:1;stroke-width:0.264583"
       xml:space="preserve"
       inkscape:export-xdpi="96"
       inkscape:export-ydpi="96"><tspan
         id="tspan2169"
         style="text-align:center;writing-mode:lr-tb;direction:ltr;text-anchor:middle;fill:#3fffff;fill-opacity:1;stroke-width:0.264583"
         y="42.163006"
         x="13.694977"
         sodipodi:role="line">C</tspan><tspan
         id="tspan2171"
         style="text-align:center;writing-mode:lr-tb;direction:ltr;text-anchor:middle;fill:#3fffff;fill-opacity:1;stroke-width:0.264583"
         y="57.03138"
         x="13.694977"
         sodipodi:role="line">Q</tspan><tspan
         id="tspan2173"
         style="text-align:center;writing-mode:lr-tb;direction:ltr;text-anchor:middle;fill:#3fffff;fill-opacity:1;stroke-width:0.264583"
         y="71.899757"
         x="13.694977"
         sodipodi:role="line">T</tspan><tspan
         id="tspan2175"
         style="text-align:center;writing-mode:lr-tb;direction:ltr;text-anchor:middle;fill:#3fffff;fill-opacity:1;stroke-width:0.264583"
         y="86.768127"
         x="13.694977"
         sodipodi:role="line">A</tspan><tspan
         id="tspan2177"
         style="text-align:center;writing-mode:lr-tb;direction:ltr;text-anchor:middle;fill:#3fffff;fill-opacity:1;stroke-width:0.264583"
         y="101.63651"
         x="13.694977"
         sodipodi:role="line">E</tspan><tspan
         id="tspan2179"
         style="text-align:center;writing-mode:lr-tb;direction:ltr;text-anchor:middle;fill:#3fffff;fill-opacity:1;stroke-width:0.264583"
         y="116.50488"
         x="13.694977"
         sodipodi:role="line">N</tspan><tspan
         id="tspan2181"
         style="text-align:center;writing-mode:lr-tb;direction:ltr;text-anchor:middle;fill:#3fffff;fill-opacity:1;stroke-width:0.264583"
         y="131.37326"
         x="13.694977"
         sodipodi:role="line">D</tspan><tspan
         id="tspan2185"
         style="writing-mode:lr-tb;direction:ltr;fill:#3fffff;fill-opacity:1;stroke-width:0.264583"
         y="146.24164"
         x="15.925232"
         sodipodi:role="line"><tspan
   style="text-align:center;text-anchor:middle;fill:#3fffff;fill-opacity:1"
   id="tspan2183">S</tspan> </tspan></text>
    <text
       xml:space="preserve"
       style="font-size:11.8947px;line-height:1.25;font-family:'Ultima Runes';-inkscape-font-specification:'Ultima Runes';letter-spacing:0px;word-spacing:0px;writing-mode:lr-tb;direction:ltr;fill:#3fffff;fill-opacity:1;stroke-width:0.264583"
       x="65.660255"
       y="42.163006"
       id="text2207"
       inkscape:export-xdpi="96"
       inkscape:export-ydpi="96"><tspan
         sodipodi:role="line"
         x="65.660255"
         y="42.163006"
         style="text-align:center;writing-mode:lr-tb;direction:ltr;text-anchor:middle;fill:#3fffff;fill-opacity:1;stroke-width:0.264583"
         id="tspan2189">J</tspan><tspan
         sodipodi:role="line"
         x="65.660255"
         y="57.03138"
         style="text-align:center;writing-mode:lr-tb;direction:ltr;text-anchor:middle;fill:#3fffff;fill-opacity:1;stroke-width:0.264583"
         id="tspan2191">P</tspan><tspan
         sodipodi:role="line"
         x="65.660255"
         y="71.899757"
         style="text-align:center;writing-mode:lr-tb;direction:ltr;text-anchor:middle;fill:#3fffff;fill-opacity:1;stroke-width:0.264583"
         id="tspan2193">X</tspan><tspan
         sodipodi:role="line"
         x="65.660255"
         y="86.768127"
         style="text-align:center;writing-mode:lr-tb;direction:ltr;text-anchor:middle;fill:#3fffff;fill-opacity:1;stroke-width:0.264583"
         id="tspan2195">Y</tspan><tspan
         sodipodi:role="line"
         x="65.660255"
         y="101.63651"
         style="text-align:center;writing-mode:lr-tb;direction:ltr;text-anchor:middle;fill:#3fffff;fill-opacity:1;stroke-width:0.264583"
         id="tspan2197">A</tspan><tspan
         sodipodi:role="line"
         x="65.660255"
         y="116.50488"
         style="text-align:center;writing-mode:lr-tb;direction:ltr;text-anchor:middle;fill:#3fffff;fill-opacity:1;stroke-width:0.264583"
         id="tspan2199">M</tspan><tspan
         sodipodi:role="line"
         x="65.660255"
         y="131.37326"
         style="text-align:center;writing-mode:lr-tb;direction:ltr;text-anchor:middle;fill:#3fffff;fill-opacity:1;stroke-width:0.264583"
         id="tspan2201">T</tspan><tspan
         sodipodi:role="line"
         x="65.660255"
         y="146.24164"
         style="text-align:center;writing-mode:lr-tb;direction:ltr;text-anchor:middle;fill:#3fffff;fill-opacity:1;stroke-width:0.264583"
         id="tspan2203">U</tspan><tspan
         sodipodi:role="line"
         x="65.660255"
         y="161.11002"
         style="writing-mode:lr-tb;direction:ltr;fill:#3fffff;fill-opacity:1;stroke-width:0.264583"
         id="tspan2205"> </tspan></text>
    <text
       id="text2227"
       y="42.163006"
       x="93.286201"
       style="font-size:11.8947px;line-height:1.25;font-family:'Ultima Runes';-inkscape-font-specification:'Ultima Runes';letter-spacing:0px;word-spacing:0px;writing-mode:lr-tb;direction:ltr;fill:#3fffff;fill-opacity:1;stroke-width:0.264583"
       xml:space="preserve"
       inkscape:export-xdpi="96"
       inkscape:export-ydpi="96"><tspan
         style="text-align:center;writing-mode:lr-tb;direction:ltr;text-anchor:middle;fill:#3fffff;fill-opacity:1;stroke-width:0.264583"
         y="42.163006"
         x="93.286201"
         sodipodi:role="line"
         id="tspan2209">L</tspan><tspan
         style="text-align:center;writing-mode:lr-tb;direction:ltr;text-anchor:middle;fill:#3fffff;fill-opacity:1;stroke-width:0.264583"
         y="57.03138"
         x="93.286201"
         sodipodi:role="line"
         id="tspan2211">A</tspan><tspan
         style="text-align:center;writing-mode:lr-tb;direction:ltr;text-anchor:middle;fill:#3fffff;fill-opacity:1;stroke-width:0.264583"
         y="71.899757"
         x="93.286201"
         sodipodi:role="line"
         id="tspan2213">U</tspan><tspan
         style="text-align:center;writing-mode:lr-tb;direction:ltr;text-anchor:middle;fill:#3fffff;fill-opacity:1;stroke-width:0.264583"
         y="86.768127"
         x="93.286201"
         sodipodi:role="line"
         id="tspan2215">R</tspan><tspan
         style="text-align:center;writing-mode:lr-tb;direction:ltr;text-anchor:middle;fill:#3fffff;fill-opacity:1;stroke-width:0.264583"
         y="101.63651"
         x="93.286201"
         sodipodi:role="line"
         id="tspan2217">A</tspan><tspan
         style="text-align:center;writing-mode:lr-tb;direction:ltr;text-anchor:middle;fill:#3fffff;fill-opacity:1;stroke-width:0.264583"
         y="116.50488"
         x="93.286201"
         sodipodi:role="line"
         id="tspan2219">L</tspan><tspan
         style="text-align:center;writing-mode:lr-tb;direction:ltr;text-anchor:middle;fill:#3fffff;fill-opacity:1;stroke-width:0.264583"
         y="131.37326"
         x="93.286201"
         sodipodi:role="line"
         id="tspan2221">O</tspan><tspan
         style="writing-mode:lr-tb;direction:ltr;fill:#3fffff;fill-opacity:1;stroke-width:0.264583"
         y="146.24164"
         x="95.516457"
         sodipodi:role="line"
         id="tspan2225"><tspan
   style="text-align:center;text-anchor:middle;fill:#3fffff;fill-opacity:1"
   id="tspan2223">V</tspan> </tspan></text>
  </g>
</svg>
